{
  "source": "C:\\Users\\Peter\\Desktop\\stuff\\MIUN\\quantitative_research\\video_compression\\videos\\BVI-HD\\BVI-HD_CDVL_videos\\ORIG\\Typing_1920x1080_60fps.mp4",
  "output": "C:\\Users\\Peter\\Desktop\\stuff\\MIUN\\quantitative_research\\video_compression\\compressed_videos\\BVI-HD\\hevc\\1\\Typing_1920x1080_60fps_hevc.mp4",
  "codec": "hevc",
  "ok": "Input #0, mov,mp4,m4a,3gp,3g2,mj2, from 'C:\\Users\\Peter\\Desktop\\stuff\\MIUN\\quantitative_research\\video_compression\\videos\\BVI-HD\\BVI-HD_CDVL_videos\\ORIG\\Typing_1920x1080_60fps.mp4':\n  Metadata:\n    major_brand     : isom\n    minor_version   : 512\n    compatible_brands: isomiso2avc1mp41\n    encoder         : Lavf54.28.101\n  Duration: 00:00:05.00, start: 0.000000, bitrate: 203453 kb/s\n  Stream #0:0[0x1](und): Video: h264 (High 4:4:4 Predictive) (avc1 / 0x31637661), yuv420p(progressive), 1920x1080, 203448 kb/s, 60 fps, 60 tbr, 60 tbn (default)\n    Metadata:\n      handler_name    : VideoHandler\n      vendor_id       : [0][0][0][0]\n[out#0/mp4 @ 000001ae4158a600] Codec AVOption b:a (set bitrate (in bits/s)) has not been used for any stream. The most likely reason is either wrong type (e.g. a video option with no video streams) or that it is a private option of some decoder which was not actually used for any stream.\nStream mapping:\n  Stream #0:0 -> #0:0 (h264 (native) -> hevc (libx265))\nPress [q] to stop, [?] for help\n[libx265 @ 000001ae41bb00c0] Unknown option: \"aq-mode.\nx265 [info]: HEVC encoder version 4.1+190-8f11c33ac\nx265 [info]: build info [Windows][GCC 15.1.0][64 bit] 10bit\nx265 [info]: using cpu capabilities: MMX2 SSE2Fast LZCNT SSSE3 SSE4.2 AVX FMA3 BMI2 AVX2\nx265 [info]: Main 10 profile, Level-4.1 (Main tier)\nx265 [info]: Thread pool created using 12 threads\nx265 [info]: Slices                              : 1\nx265 [info]: frame threads / pool features       : 3 / wpp(17 rows)\nx265 [info]: Coding QT: max CU size, min CU size : 64 / 8\nx265 [info]: Residual QT: max TU size, max depth : 32 / 1 inter / 1 intra\nx265 [info]: ME / range / subpel / merge         : star / 57 / 3 / 3\nx265 [info]: Keyframe min / max / scenecut / bias  : 25 / 250 / 40 / 5.00 \nx265 [info]: Lookahead / bframes / badapt        : 25 / 4 / 2\nx265 [info]: b-pyramid / weightp / weightb       : 1 / 1 / 0\nx265 [info]: References / ref-limit  cu / depth  : 4 / on / on\nx265 [info]: AQ: mode / str / qg-size / cu-tree  : 2 / 1.0 / 32 / 1\nx265 [info]: Rate Control / qCompress            : ABR-1000 kbps / 0.60\nx265 [info]: VBV/HRD buffer / max-rate / init    : 1000 / 1000 / 0.750\nx265 [info]: tools: rect limit-modes rd=4 psy-rd=2.00 rdoq=2 psy-rdoq=1.00\nx265 [info]: tools: rskip mode=1 signhide tmvp strong-intra-smoothing lslices=4\nx265 [info]: tools: deblock sao dhdr10-info\nOutput #0, mp4, to 'C:\\Users\\Peter\\Desktop\\stuff\\MIUN\\quantitative_research\\video_compression\\compressed_videos\\BVI-HD\\hevc\\1\\Typing_1920x1080_60fps_hevc.mp4':\n  Metadata:\n    major_brand     : isom\n    minor_version   : 512\n    compatible_brands: isomiso2avc1mp41\n    encoder         : Lavf62.3.100\n  Stream #0:0(und): Video: hevc (hev1 / 0x31766568), yuv420p10le(tv, progressive), 1920x1080, q=2-31, 1000 kb/s, 60 fps, 15360 tbn (default)\n    Metadata:\n      encoder         : Lavc62.11.100 libx265\n      handler_name    : VideoHandler\n      vendor_id       : [0][0][0][0]\n    Side data:\n      cpb: bitrate max/min/avg: 1000000/0/1000000 buffer size: 1000000 vbv_delay: N/A\nframe=    0 fps=0.0 q=0.0 size=       0KiB time=N/A bitrate=N/A speed=N/A elapsed=0:00:00.51    \nframe=    0 fps=0.0 q=0.0 size=       0KiB time=N/A bitrate=N/A speed=N/A elapsed=0:00:01.08    \nframe=    0 fps=0.0 q=0.0 size=       0KiB time=N/A bitrate=N/A speed=N/A elapsed=0:00:01.65    \nframe=    0 fps=0.0 q=0.0 size=       0KiB time=N/A bitrate=N/A speed=N/A elapsed=0:00:02.20    \nframe=    0 fps=0.0 q=0.0 size=       0KiB time=N/A bitrate=N/A speed=N/A elapsed=0:00:02.76    \nframe=    0 fps=0.0 q=0.0 size=       0KiB time=N/A bitrate=N/A speed=N/A elapsed=0:00:03.30    \nframe=    0 fps=0.0 q=0.0 size=       0KiB time=N/A bitrate=N/A speed=N/A elapsed=0:00:03.85    \nframe=    0 fps=0.0 q=0.0 size=       0KiB time=N/A bitrate=N/A speed=N/A elapsed=0:00:04.42    \nframe=    0 fps=0.0 q=0.0 size=       0KiB time=N/A bitrate=N/A speed=N/A elapsed=0:00:05.01    \nframe=    0 fps=0.0 q=0.0 size=       0KiB time=N/A bitrate=N/A speed=N/A elapsed=0:00:05.56    \nframe=    0 fps=0.0 q=0.0 size=       0KiB time=N/A bitrate=N/A speed=N/A elapsed=0:00:06.11    \nframe=    0 fps=0.0 q=0.0 size=       0KiB time=N/A bitrate=N/A speed=N/A elapsed=0:00:06.66    \nframe=    0 fps=0.0 q=0.0 size=       0KiB time=N/A bitrate=N/A speed=N/A elapsed=0:00:07.21    \nframe=    0 fps=0.0 q=0.0 size=       0KiB time=N/A bitrate=N/A speed=N/A elapsed=0:00:07.74    \nframe=    0 fps=0.0 q=0.0 size=       0KiB time=N/A bitrate=N/A speed=N/A elapsed=0:00:08.29    \nframe=    0 fps=0.0 q=0.0 size=       0KiB time=N/A bitrate=N/A speed=N/A elapsed=0:00:08.82    \nframe=    0 fps=0.0 q=0.0 size=       0KiB time=N/A bitrate=N/A speed=N/A elapsed=0:00:09.36    \nframe=    0 fps=0.0 q=0.0 size=       0KiB time=N/A bitrate=N/A speed=N/A elapsed=0:00:09.88    \nframe=    0 fps=0.0 q=0.0 size=       0KiB time=N/A bitrate=N/A speed=N/A elapsed=0:00:10.43    \nframe=    0 fps=0.0 q=0.0 size=       0KiB time=N/A bitrate=N/A speed=N/A elapsed=0:00:10.95    \nframe=    0 fps=0.0 q=0.0 size=       0KiB time=N/A bitrate=N/A speed=N/A elapsed=0:00:11.51    \nframe=    0 fps=0.0 q=0.0 size=       0KiB time=N/A bitrate=N/A speed=N/A elapsed=0:00:12.05    \nframe=    0 fps=0.0 q=0.0 size=       0KiB time=N/A bitrate=N/A speed=N/A elapsed=0:00:12.63    \nframe=    0 fps=0.0 q=0.0 size=       0KiB time=N/A bitrate=N/A speed=N/A elapsed=0:00:13.23    \nframe=    0 fps=0.0 q=0.0 size=       0KiB time=N/A bitrate=N/A speed=N/A elapsed=0:00:13.80    \nframe=    0 fps=0.0 q=0.0 size=       0KiB time=N/A bitrate=N/A speed=N/A elapsed=0:00:14.33    \nframe=    0 fps=0.0 q=0.0 size=       0KiB time=N/A bitrate=N/A speed=N/A elapsed=0:00:14.87    \nframe=    0 fps=0.0 q=0.0 size=       0KiB time=N/A bitrate=N/A speed=N/A elapsed=0:00:15.39    \nframe=    1 fps=0.1 q=43.5 size=       0KiB time=-00:00:00.01 bitrate=N/A speed=N/A elapsed=0:00:15.94    \nframe=    1 fps=0.1 q=43.5 size=       0KiB time=-00:00:00.01 bitrate=N/A speed=N/A elapsed=0:00:16.50    \nframe=    1 fps=0.1 q=43.5 size=       0KiB time=-00:00:00.01 bitrate=N/A speed=N/A elapsed=0:00:17.03    \nframe=    1 fps=0.1 q=43.5 size=       0KiB time=-00:00:00.01 bitrate=N/A speed=N/A elapsed=0:00:17.57    \nframe=    1 fps=0.1 q=43.5 size=       0KiB time=-00:00:00.01 bitrate=N/A speed=N/A elapsed=0:00:18.17    \nframe=    2 fps=0.1 q=50.1 size=       0KiB time=00:00:00.00 bitrate=N/A speed=   0x elapsed=0:00:18.76    \nframe=    3 fps=0.2 q=50.9 size=       0KiB time=00:00:00.01 bitrate=  21.1kbits/s speed=0.000862x elapsed=0:00:19.33    \nframe=    3 fps=0.2 q=50.9 size=       0KiB time=00:00:00.01 bitrate=  21.1kbits/s speed=0.000839x elapsed=0:00:19.87    \nframe=    3 fps=0.1 q=50.9 size=       0KiB time=00:00:00.01 bitrate=  21.1kbits/s speed=0.000816x elapsed=0:00:20.42    \nframe=    3 fps=0.1 q=50.9 size=       0KiB time=00:00:00.01 bitrate=  21.1kbits/s speed=0.000794x elapsed=0:00:20.98    \nframe=    3 fps=0.1 q=50.9 size=       0KiB time=00:00:00.01 bitrate=  21.1kbits/s speed=0.000774x elapsed=0:00:21.52    \nframe=    4 fps=0.2 q=50.8 size=       0KiB time=00:00:00.03 bitrate=  10.6kbits/s speed=0.00151x elapsed=0:00:22.08    \nframe=    4 fps=0.2 q=50.8 size=       0KiB time=00:00:00.03 bitrate=  10.6kbits/s speed=0.00147x elapsed=0:00:22.64    \nframe=    4 fps=0.2 q=50.8 size=       0KiB time=00:00:00.03 bitrate=  10.6kbits/s speed=0.00144x elapsed=0:00:23.18    \nframe=    4 fps=0.2 q=50.8 size=       0KiB time=00:00:00.03 bitrate=  10.6kbits/s speed=0.00141x elapsed=0:00:23.71    \nframe=    4 fps=0.2 q=50.8 size=       0KiB time=00:00:00.03 bitrate=  10.6kbits/s speed=0.00137x elapsed=0:00:24.28    \nframe=    4 fps=0.2 q=50.8 size=       0KiB time=00:00:00.03 bitrate=  10.6kbits/s speed=0.00134x elapsed=0:00:24.82    \nframe=    5 fps=0.2 q=48.4 size=       0KiB time=00:00:00.05 bitrate=   7.0kbits/s speed=0.00197x elapsed=0:00:25.37    \nframe=    6 fps=0.2 q=47.4 size=       0KiB time=00:00:00.06 bitrate=   5.3kbits/s speed=0.00257x elapsed=0:00:25.90    \nframe=    6 fps=0.2 q=47.4 size=       0KiB time=00:00:00.06 bitrate=   5.3kbits/s speed=0.00252x elapsed=0:00:26.45    \nframe=    6 fps=0.2 q=47.4 size=       0KiB time=00:00:00.06 bitrate=   5.3kbits/s speed=0.00247x elapsed=0:00:26.98    \nframe=    6 fps=0.2 q=47.4 size=       0KiB time=00:00:00.06 bitrate=   5.3kbits/s speed=0.00242x elapsed=0:00:27.53    \nframe=    6 fps=0.2 q=47.4 size=       0KiB time=00:00:00.06 bitrate=   5.3kbits/s speed=0.00237x elapsed=0:00:28.07    \nframe=    7 fps=0.2 q=40.6 size=       0KiB time=00:00:00.08 bitrate=   4.2kbits/s speed=0.00291x elapsed=0:00:28.62    \nframe=    7 fps=0.2 q=40.6 size=       0KiB time=00:00:00.08 bitrate=   4.2kbits/s speed=0.00286x elapsed=0:00:29.16    \nframe=    7 fps=0.2 q=40.6 size=       0KiB time=00:00:00.08 bitrate=   4.2kbits/s speed=0.0028x elapsed=0:00:29.71    \nframe=    7 fps=0.2 q=40.6 size=       0KiB time=00:00:00.08 bitrate=   4.2kbits/s speed=0.00275x elapsed=0:00:30.25    \nframe=    8 fps=0.3 q=43.8 size=       0KiB time=00:00:00.10 bitrate=   3.5kbits/s speed=0.00325x elapsed=0:00:30.77    \nframe=    8 fps=0.3 q=43.8 size=       0KiB time=00:00:00.10 bitrate=   3.5kbits/s speed=0.00319x elapsed=0:00:31.32    \nframe=    9 fps=0.3 q=43.3 size=       0KiB time=00:00:00.11 bitrate=   3.0kbits/s speed=0.00366x elapsed=0:00:31.86    \nframe=    9 fps=0.3 q=43.3 size=       0KiB time=00:00:00.11 bitrate=   3.0kbits/s speed=0.0036x elapsed=0:00:32.41    \nframe=   10 fps=0.3 q=44.6 size=       0KiB time=00:00:00.13 bitrate=   2.6kbits/s speed=0.00405x elapsed=0:00:32.94    \nframe=   10 fps=0.3 q=44.6 size=       0KiB time=00:00:00.13 bitrate=   2.6kbits/s speed=0.00398x elapsed=0:00:33.48    \nframe=   10 fps=0.3 q=44.6 size=       0KiB time=00:00:00.13 bitrate=   2.6kbits/s speed=0.00392x elapsed=0:00:34.01    \nframe=   10 fps=0.3 q=44.6 size=       0KiB time=00:00:00.13 bitrate=   2.6kbits/s speed=0.00386x elapsed=0:00:34.55    \nframe=   10 fps=0.3 q=44.6 size=       0KiB time=00:00:00.13 bitrate=   2.6kbits/s speed=0.0038x elapsed=0:00:35.07    \nframe=   10 fps=0.3 q=44.6 size=       0KiB time=00:00:00.13 bitrate=   2.6kbits/s speed=0.00375x elapsed=0:00:35.59    \nframe=   11 fps=0.3 q=39.5 size=       0KiB time=00:00:00.15 bitrate=   2.3kbits/s speed=0.00415x elapsed=0:00:36.11    \nframe=   11 fps=0.3 q=39.5 size=       0KiB time=00:00:00.15 bitrate=   2.3kbits/s speed=0.00409x elapsed=0:00:36.65    \nframe=   12 fps=0.3 q=45.2 size=       0KiB time=00:00:00.16 bitrate=   2.1kbits/s speed=0.00448x elapsed=0:00:37.17    \nframe=   12 fps=0.3 q=45.2 size=       0KiB time=00:00:00.16 bitrate=   2.1kbits/s speed=0.00442x elapsed=0:00:37.69    \nframe=   12 fps=0.3 q=45.2 size=       0KiB time=00:00:00.16 bitrate=   2.1kbits/s speed=0.00435x elapsed=0:00:38.30    \nframe=   12 fps=0.3 q=45.2 size=       0KiB time=00:00:00.16 bitrate=   2.1kbits/s speed=0.00428x elapsed=0:00:38.91    \nframe=   12 fps=0.3 q=45.2 size=       0KiB time=00:00:00.16 bitrate=   2.1kbits/s speed=0.00422x elapsed=0:00:39.49    \nframe=   12 fps=0.3 q=45.2 size=       0KiB time=00:00:00.16 bitrate=   2.1kbits/s speed=0.00416x elapsed=0:00:40.06    \nframe=   12 fps=0.3 q=45.2 size=       0KiB time=00:00:00.16 bitrate=   2.1kbits/s speed=0.0041x elapsed=0:00:40.64    \nframe=   12 fps=0.3 q=45.2 size=       0KiB time=00:00:00.16 bitrate=   2.1kbits/s speed=0.00404x elapsed=0:00:41.20    \nframe=   12 fps=0.3 q=45.2 size=       0KiB time=00:00:00.16 bitrate=   2.1kbits/s speed=0.00399x elapsed=0:00:41.77    \nframe=   12 fps=0.3 q=45.2 size=       0KiB time=00:00:00.16 bitrate=   2.1kbits/s speed=0.00394x elapsed=0:00:42.30    \nframe=   13 fps=0.3 q=45.6 size=       0KiB time=00:00:00.18 bitrate=   1.9kbits/s speed=0.00428x elapsed=0:00:42.81    \nframe=   13 fps=0.3 q=45.6 size=       0KiB time=00:00:00.18 bitrate=   1.9kbits/s speed=0.00423x elapsed=0:00:43.33    \nframe=   14 fps=0.3 q=44.7 size=       0KiB time=00:00:00.20 bitrate=   1.8kbits/s speed=0.00456x elapsed=0:00:43.85    \nframe=   14 fps=0.3 q=44.7 size=       0KiB time=00:00:00.20 bitrate=   1.8kbits/s speed=0.00451x elapsed=0:00:44.38    \nframe=   14 fps=0.3 q=44.7 size=       0KiB time=00:00:00.20 bitrate=   1.8kbits/s speed=0.00445x elapsed=0:00:44.89    \nframe=   15 fps=0.3 q=38.7 size=       0KiB time=00:00:00.21 bitrate=   1.6kbits/s speed=0.00477x elapsed=0:00:45.43    \nframe=   15 fps=0.3 q=38.7 size=       0KiB time=00:00:00.21 bitrate=   1.6kbits/s speed=0.00471x elapsed=0:00:45.95    \nframe=   16 fps=0.3 q=43.2 size=       0KiB time=00:00:00.23 bitrate=   1.5kbits/s speed=0.00502x elapsed=0:00:46.50    \nframe=   16 fps=0.3 q=43.2 size=       0KiB time=00:00:00.23 bitrate=   1.5kbits/s speed=0.00496x elapsed=0:00:47.01    \nframe=   17 fps=0.4 q=43.4 size=       0KiB time=00:00:00.25 bitrate=   1.4kbits/s speed=0.00526x elapsed=0:00:47.53    \nframe=   17 fps=0.4 q=43.4 size=       0KiB time=00:00:00.25 bitrate=   1.4kbits/s speed=0.0052x elapsed=0:00:48.04    \nframe=   19 fps=0.4 q=37.6 size=       0KiB time=00:00:00.28 bitrate=   1.2kbits/s speed=0.00583x elapsed=0:00:48.56    \nframe=   19 fps=0.4 q=37.6 size=       0KiB time=00:00:00.28 bitrate=   1.2kbits/s speed=0.00577x elapsed=0:00:49.10    \nframe=   20 fps=0.4 q=42.9 size=       0KiB time=00:00:00.30 bitrate=   1.2kbits/s speed=0.00604x elapsed=0:00:49.63    \nframe=   20 fps=0.4 q=42.9 size=       0KiB time=00:00:00.30 bitrate=   1.2kbits/s speed=0.00598x elapsed=0:00:50.13    \nframe=   20 fps=0.4 q=42.9 size=       0KiB time=00:00:00.30 bitrate=   1.2kbits/s speed=0.00592x elapsed=0:00:50.66    \nframe=   21 fps=0.4 q=44.3 size=       0KiB time=00:00:00.31 bitrate=   1.1kbits/s speed=0.00618x elapsed=0:00:51.20    \nframe=   21 fps=0.4 q=44.3 size=       0KiB time=00:00:00.31 bitrate=   1.1kbits/s speed=0.00612x elapsed=0:00:51.76    \nframe=   21 fps=0.4 q=44.3 size=       0KiB time=00:00:00.31 bitrate=   1.1kbits/s speed=0.00606x elapsed=0:00:52.28    \nframe=   22 fps=0.4 q=43.4 size=       0KiB time=00:00:00.33 bitrate=   1.1kbits/s speed=0.00631x elapsed=0:00:52.82    \nframe=   23 fps=0.4 q=36.5 size=       0KiB time=00:00:00.35 bitrate=   1.0kbits/s speed=0.00656x elapsed=0:00:53.37    \nframe=   24 fps=0.4 q=42.2 size=       0KiB time=00:00:00.36 bitrate=   1.0kbits/s speed=0.0068x elapsed=0:00:53.90    \nframe=   24 fps=0.4 q=42.2 size=       0KiB time=00:00:00.36 bitrate=   1.0kbits/s speed=0.00673x elapsed=0:00:54.46    \nframe=   24 fps=0.4 q=42.2 size=       0KiB time=00:00:00.36 bitrate=   1.0kbits/s speed=0.00666x elapsed=0:00:55.02    \nframe=   24 fps=0.4 q=42.2 size=       0KiB time=00:00:00.36 bitrate=   1.0kbits/s speed=0.0066x elapsed=0:00:55.58    \nframe=   24 fps=0.4 q=42.2 size=       0KiB time=00:00:00.36 bitrate=   1.0kbits/s speed=0.00653x elapsed=0:00:56.13    \nframe=   24 fps=0.4 q=42.2 size=       0KiB time=00:00:00.36 bitrate=   1.0kbits/s speed=0.00647x elapsed=0:00:56.69    \nframe=   25 fps=0.4 q=42.2 size=       0KiB time=00:00:00.38 bitrate=   0.9kbits/s speed=0.0067x elapsed=0:00:57.24    \nframe=   26 fps=0.4 q=42.3 size=       0KiB time=00:00:00.40 bitrate=   0.9kbits/s speed=0.00692x elapsed=0:00:57.79    \nframe=   26 fps=0.4 q=42.3 size=       0KiB time=00:00:00.40 bitrate=   0.9kbits/s speed=0.00685x elapsed=0:00:58.35    \nframe=   26 fps=0.4 q=42.3 size=       0KiB time=00:00:00.40 bitrate=   0.9kbits/s speed=0.00679x elapsed=0:00:58.91    \nframe=   27 fps=0.5 q=42.6 size=       0KiB time=00:00:00.41 bitrate=   0.8kbits/s speed=0.00701x elapsed=0:00:59.47    \nframe=   27 fps=0.4 q=42.6 size=       0KiB time=00:00:00.41 bitrate=   0.8kbits/s speed=0.00694x elapsed=0:01:00.02    \nframe=   27 fps=0.4 q=42.6 size=       0KiB time=00:00:00.41 bitrate=   0.8kbits/s speed=0.00688x elapsed=0:01:00.57    \nframe=   28 fps=0.5 q=35.5 size=       0KiB time=00:00:00.43 bitrate=   0.8kbits/s speed=0.00709x elapsed=0:01:01.12    \nframe=   28 fps=0.5 q=35.5 size=       0KiB time=00:00:00.43 bitrate=   0.8kbits/s speed=0.00702x elapsed=0:01:01.70    \nframe=   28 fps=0.4 q=35.5 size=       0KiB time=00:00:00.43 bitrate=   0.8kbits/s speed=0.00696x elapsed=0:01:02.23    \nframe=   28 fps=0.4 q=35.5 size=       0KiB time=00:00:00.43 bitrate=   0.8kbits/s speed=0.0069x elapsed=0:01:02.78    \nframe=   28 fps=0.4 q=35.5 size=       0KiB time=00:00:00.43 bitrate=   0.8kbits/s speed=0.00684x elapsed=0:01:03.32    \nframe=   29 fps=0.5 q=42.1 size=       0KiB time=00:00:00.45 bitrate=   0.8kbits/s speed=0.00705x elapsed=0:01:03.86    \nframe=   29 fps=0.5 q=42.1 size=       0KiB time=00:00:00.45 bitrate=   0.8kbits/s speed=0.00699x elapsed=0:01:04.39    \nframe=   30 fps=0.5 q=42.5 size=       0KiB time=00:00:00.46 bitrate=   0.8kbits/s speed=0.00719x elapsed=0:01:04.91    \nframe=   31 fps=0.5 q=41.4 size=       0KiB time=00:00:00.48 bitrate=   0.7kbits/s speed=0.00739x elapsed=0:01:05.43    \nframe=   31 fps=0.5 q=41.4 size=       0KiB time=00:00:00.48 bitrate=   0.7kbits/s speed=0.00733x elapsed=0:01:05.96    \nframe=   31 fps=0.5 q=41.4 size=       0KiB time=00:00:00.48 bitrate=   0.7kbits/s speed=0.00727x elapsed=0:01:06.48    \nframe=   31 fps=0.5 q=41.4 size=       0KiB time=00:00:00.48 bitrate=   0.7kbits/s speed=0.00721x elapsed=0:01:07.02    \nframe=   32 fps=0.5 q=41.3 size=       0KiB time=00:00:00.48 bitrate=   0.7kbits/s speed=0.00715x elapsed=0:01:07.61    \nframe=   32 fps=0.5 q=41.3 size=       0KiB time=00:00:00.50 bitrate=   0.7kbits/s speed=0.00733x elapsed=0:01:08.19    \nframe=   32 fps=0.5 q=41.3 size=       0KiB time=00:00:00.50 bitrate=   0.7kbits/s speed=0.00727x elapsed=0:01:08.74    \nframe=   32 fps=0.5 q=41.3 size=       0KiB time=00:00:00.50 bitrate=   0.7kbits/s speed=0.00721x elapsed=0:01:09.30    \nframe=   32 fps=0.5 q=41.3 size=       0KiB time=00:00:00.50 bitrate=   0.7kbits/s speed=0.00716x elapsed=0:01:09.81    \nframe=   33 fps=0.5 q=34.8 size=       0KiB time=00:00:00.51 bitrate=   0.7kbits/s speed=0.00734x elapsed=0:01:10.34    \nframe=   33 fps=0.5 q=34.8 size=       0KiB time=00:00:00.51 bitrate=   0.7kbits/s speed=0.00728x elapsed=0:01:10.92    \nframe=   34 fps=0.5 q=39.4 size=       0KiB time=00:00:00.53 bitrate=   0.7kbits/s speed=0.00746x elapsed=0:01:11.44    \nframe=   34 fps=0.5 q=39.4 size=       0KiB time=00:00:00.53 bitrate=   0.7kbits/s speed=0.00741x elapsed=0:01:12.01    \nframe=   34 fps=0.5 q=39.4 size=       0KiB time=00:00:00.53 bitrate=   0.7kbits/s speed=0.00735x elapsed=0:01:12.55    \nframe=   34 fps=0.5 q=39.4 size=       0KiB time=00:00:00.53 bitrate=   0.7kbits/s speed=0.0073x elapsed=0:01:13.07    \nframe=   35 fps=0.5 q=41.5 size=       0KiB time=00:00:00.55 bitrate=   0.6kbits/s speed=0.00747x elapsed=0:01:13.59    \nframe=   35 fps=0.5 q=41.5 size=       0KiB time=00:00:00.55 bitrate=   0.6kbits/s speed=0.00741x elapsed=0:01:14.19    \nframe=   35 fps=0.5 q=41.5 size=       0KiB time=00:00:00.55 bitrate=   0.6kbits/s speed=0.00736x elapsed=0:01:14.77    \nframe=   35 fps=0.5 q=41.5 size=       0KiB time=00:00:00.55 bitrate=   0.6kbits/s speed=0.0073x elapsed=0:01:15.35    \nframe=   35 fps=0.5 q=41.5 size=       0KiB time=00:00:00.55 bitrate=   0.6kbits/s speed=0.00725x elapsed=0:01:15.87    \nframe=   35 fps=0.5 q=41.5 size=       0KiB time=00:00:00.55 bitrate=   0.6kbits/s speed=0.0072x elapsed=0:01:16.39    \nframe=   35 fps=0.5 q=41.5 size=       0KiB time=00:00:00.55 bitrate=   0.6kbits/s speed=0.00715x elapsed=0:01:16.96    \nframe=   35 fps=0.5 q=41.5 size=       0KiB time=00:00:00.55 bitrate=   0.6kbits/s speed=0.00709x elapsed=0:01:17.53    \nframe=   35 fps=0.4 q=41.5 size=       0KiB time=00:00:00.55 bitrate=   0.6kbits/s speed=0.00705x elapsed=0:01:18.04    \nframe=   35 fps=0.4 q=41.5 size=       0KiB time=00:00:00.55 bitrate=   0.6kbits/s speed=0.00699x elapsed=0:01:18.63    \nframe=   36 fps=0.5 q=40.3 size=       0KiB time=00:00:00.56 bitrate=   0.6kbits/s speed=0.00716x elapsed=0:01:19.17    \nframe=   36 fps=0.5 q=40.3 size=       0KiB time=00:00:00.56 bitrate=   0.6kbits/s speed=0.00711x elapsed=0:01:19.71    \nframe=   36 fps=0.4 q=40.3 size=       0KiB time=00:00:00.56 bitrate=   0.6kbits/s speed=0.00706x elapsed=0:01:20.23    \nframe=   37 fps=0.5 q=40.4 size=       0KiB time=00:00:00.58 bitrate=   0.6kbits/s speed=0.00722x elapsed=0:01:20.75    \nframe=   37 fps=0.5 q=40.4 size=       0KiB time=00:00:00.58 bitrate=   0.6kbits/s speed=0.00718x elapsed=0:01:21.26    \nframe=   38 fps=0.5 q=33.7 size=       0KiB time=00:00:00.60 bitrate=   0.6kbits/s speed=0.00734x elapsed=0:01:21.78    \nframe=   38 fps=0.5 q=33.7 size=       0KiB time=00:00:00.60 bitrate=   0.6kbits/s speed=0.00729x elapsed=0:01:22.30    \nframe=   38 fps=0.5 q=33.7 size=       0KiB time=00:00:00.60 bitrate=   0.6kbits/s speed=0.00724x elapsed=0:01:22.85    \nframe=   39 fps=0.5 q=39.8 size=       0KiB time=00:00:00.61 bitrate=   0.6kbits/s speed=0.0074x elapsed=0:01:23.38    \nframe=   39 fps=0.5 q=39.8 size=       0KiB time=00:00:00.61 bitrate=   0.6kbits/s speed=0.00735x elapsed=0:01:23.93    \nframe=   40 fps=0.5 q=40.3 size=       0KiB time=00:00:00.63 bitrate=   0.6kbits/s speed=0.0075x elapsed=0:01:24.47    \nframe=   40 fps=0.5 q=40.3 size=       0KiB time=00:00:00.63 bitrate=   0.6kbits/s speed=0.00745x elapsed=0:01:25.01    \nframe=   40 fps=0.5 q=40.3 size=       0KiB time=00:00:00.63 bitrate=   0.6kbits/s speed=0.0074x elapsed=0:01:25.53    \nframe=   41 fps=0.5 q=40.4 size=       0KiB time=00:00:00.65 bitrate=   0.5kbits/s speed=0.00755x elapsed=0:01:26.05    \nframe=   41 fps=0.5 q=40.4 size=       0KiB time=00:00:00.65 bitrate=   0.5kbits/s speed=0.0075x elapsed=0:01:26.62    \nframe=   41 fps=0.5 q=40.4 size=       0KiB time=00:00:00.65 bitrate=   0.5kbits/s speed=0.00745x elapsed=0:01:27.19    \nframe=   41 fps=0.5 q=40.4 size=       0KiB time=00:00:00.65 bitrate=   0.5kbits/s speed=0.00741x elapsed=0:01:27.75    \nframe=   41 fps=0.5 q=40.4 size=       0KiB time=00:00:00.65 bitrate=   0.5kbits/s speed=0.00736x elapsed=0:01:28.31    \nframe=   42 fps=0.5 q=40.6 size=       0KiB time=00:00:00.66 bitrate=   0.5kbits/s speed=0.0075x elapsed=0:01:28.87    \nframe=   42 fps=0.5 q=40.6 size=       0KiB time=00:00:00.66 bitrate=   0.5kbits/s speed=0.00745x elapsed=0:01:29.42    \nframe=   42 fps=0.5 q=40.6 size=       0KiB time=00:00:00.66 bitrate=   0.5kbits/s speed=0.00741x elapsed=0:01:29.95    \nframe=   42 fps=0.5 q=40.6 size=       0KiB time=00:00:00.66 bitrate=   0.5kbits/s speed=0.00737x elapsed=0:01:30.50    \nframe=   43 fps=0.5 q=34.4 size=       0KiB time=00:00:00.68 bitrate=   0.5kbits/s speed=0.0075x elapsed=0:01:31.06    \nframe=   44 fps=0.5 q=40.3 size=       0KiB time=00:00:00.70 bitrate=   0.5kbits/s speed=0.00764x elapsed=0:01:31.59    \nframe=   45 fps=0.5 q=40.5 size=       0KiB time=00:00:00.71 bitrate=   0.5kbits/s speed=0.00778x elapsed=0:01:32.15    \nframe=   45 fps=0.5 q=40.5 size=       0KiB time=00:00:00.71 bitrate=   0.5kbits/s speed=0.00773x elapsed=0:01:32.70    \nframe=   45 fps=0.5 q=40.5 size=       0KiB time=00:00:00.71 bitrate=   0.5kbits/s speed=0.00769x elapsed=0:01:33.22    \nframe=   46 fps=0.5 q=39.4 size=       0KiB time=00:00:00.73 bitrate=   0.5kbits/s speed=0.00782x elapsed=0:01:33.75    \nframe=   46 fps=0.5 q=39.4 size=       0KiB time=00:00:00.73 bitrate=   0.5kbits/s speed=0.00778x elapsed=0:01:34.29    \nframe=   47 fps=0.5 q=39.5 size=       0KiB time=00:00:00.75 bitrate=   0.5kbits/s speed=0.00791x elapsed=0:01:34.82    \nframe=   47 fps=0.5 q=39.5 size=       0KiB time=00:00:00.75 bitrate=   0.5kbits/s speed=0.00787x elapsed=0:01:35.33    \nframe=   48 fps=0.5 q=32.3 size=       0KiB time=00:00:00.76 bitrate=   0.5kbits/s speed=0.008x elapsed=0:01:35.85    \nframe=   49 fps=0.5 q=38.5 size=       0KiB time=00:00:00.78 bitrate=   0.4kbits/s speed=0.00813x elapsed=0:01:36.37    \nframe=   49 fps=0.5 q=38.5 size=       0KiB time=00:00:00.78 bitrate=   0.4kbits/s speed=0.00808x elapsed=0:01:36.88    \nframe=   50 fps=0.5 q=39.4 size=       0KiB time=00:00:00.80 bitrate=   0.4kbits/s speed=0.00821x elapsed=0:01:37.40    \nframe=   50 fps=0.5 q=39.4 size=       0KiB time=00:00:00.80 bitrate=   0.4kbits/s speed=0.00817x elapsed=0:01:37.92    \nframe=   51 fps=0.5 q=39.3 size=       0KiB time=00:00:00.81 bitrate=   0.4kbits/s speed=0.0083x elapsed=0:01:38.43    \nframe=   51 fps=0.5 q=39.3 size=       0KiB time=00:00:00.81 bitrate=   0.4kbits/s speed=0.00825x elapsed=0:01:38.97    \nframe=   52 fps=0.5 q=39.4 size=       0KiB time=00:00:00.83 bitrate=   0.4kbits/s speed=0.00837x elapsed=0:01:39.53    \nframe=   53 fps=0.5 q=32.8 size=       0KiB time=00:00:00.85 bitrate=   0.4kbits/s speed=0.00849x elapsed=0:01:40.06    \nframe=   53 fps=0.5 q=32.8 size=       0KiB time=00:00:00.85 bitrate=   0.4kbits/s speed=0.00845x elapsed=0:01:40.62    \nframe=   54 fps=0.5 q=39.5 size=       0KiB time=00:00:00.86 bitrate=   0.4kbits/s speed=0.00857x elapsed=0:01:41.16    \nframe=   54 fps=0.5 q=39.5 size=       0KiB time=00:00:00.86 bitrate=   0.4kbits/s speed=0.00852x elapsed=0:01:41.68    \nframe=   55 fps=0.5 q=39.5 size=       0KiB time=00:00:00.88 bitrate=   0.4kbits/s speed=0.00864x elapsed=0:01:42.22    \nframe=   55 fps=0.5 q=39.5 size=       0KiB time=00:00:00.88 bitrate=   0.4kbits/s speed=0.0086x elapsed=0:01:42.76    \nframe=   55 fps=0.5 q=39.5 size=       0KiB time=00:00:00.88 bitrate=   0.4kbits/s speed=0.00855x elapsed=0:01:43.30    \nframe=   56 fps=0.5 q=39.3 size=       0KiB time=00:00:00.90 bitrate=   0.4kbits/s speed=0.00867x elapsed=0:01:43.83    \nframe=   57 fps=0.5 q=38.6 size=       0KiB time=00:00:00.91 bitrate=   0.4kbits/s speed=0.00878x elapsed=0:01:44.35    \nframe=   57 fps=0.5 q=38.6 size=       0KiB time=00:00:00.91 bitrate=   0.4kbits/s speed=0.00874x elapsed=0:01:44.87    \nframe=   57 fps=0.5 q=38.6 size=       0KiB time=00:00:00.91 bitrate=   0.4kbits/s speed=0.0087x elapsed=0:01:45.40    \nframe=   57 fps=0.5 q=38.6 size=       0KiB time=00:00:00.91 bitrate=   0.4kbits/s speed=0.00864x elapsed=0:01:46.05    \nframe=   57 fps=0.5 q=38.6 size=       0KiB time=00:00:00.91 bitrate=   0.4kbits/s speed=0.0086x elapsed=0:01:46.64    \nframe=   58 fps=0.5 q=33.7 size=       0KiB time=00:00:00.93 bitrate=   0.4kbits/s speed=0.00871x elapsed=0:01:47.17    \nframe=   58 fps=0.5 q=33.7 size=       0KiB time=00:00:00.93 bitrate=   0.4kbits/s speed=0.00867x elapsed=0:01:47.70    \nframe=   58 fps=0.5 q=33.7 size=       0KiB time=00:00:00.93 bitrate=   0.4kbits/s speed=0.00862x elapsed=0:01:48.22    \nframe=   58 fps=0.5 q=33.7 size=       0KiB time=00:00:00.93 bitrate=   0.4kbits/s speed=0.00858x elapsed=0:01:48.74    \nframe=   59 fps=0.5 q=38.1 size=       0KiB time=00:00:00.95 bitrate=   0.4kbits/s speed=0.00869x elapsed=0:01:49.29    \nframe=   59 fps=0.5 q=38.1 size=       0KiB time=00:00:00.95 bitrate=   0.4kbits/s speed=0.00865x elapsed=0:01:49.83    \nframe=   60 fps=0.5 q=38.6 size=       0KiB time=00:00:00.96 bitrate=   0.4kbits/s speed=0.00876x elapsed=0:01:50.40    \nframe=   60 fps=0.5 q=38.6 size=       0KiB time=00:00:00.96 bitrate=   0.4kbits/s speed=0.00871x elapsed=0:01:50.95    \nframe=   60 fps=0.5 q=38.6 size=       0KiB time=00:00:00.96 bitrate=   0.4kbits/s speed=0.00867x elapsed=0:01:51.49    \nframe=   61 fps=0.5 q=38.4 size=       0KiB time=00:00:00.98 bitrate=   0.4kbits/s speed=0.00878x elapsed=0:01:52.02    \nframe=   61 fps=0.5 q=38.4 size=       0KiB time=00:00:00.98 bitrate=   0.4kbits/s speed=0.00874x elapsed=0:01:52.56    \nframe=   61 fps=0.5 q=38.4 size=       0KiB time=00:00:00.98 bitrate=   0.4kbits/s speed=0.00869x elapsed=0:01:53.12    \nframe=   62 fps=0.5 q=31.1 size=       0KiB time=00:00:01.00 bitrate=   0.4kbits/s speed=0.0088x elapsed=0:01:53.67    \nframe=   62 fps=0.5 q=31.1 size=       0KiB time=00:00:01.00 bitrate=   0.4kbits/s speed=0.00876x elapsed=0:01:54.20    \nframe=   63 fps=0.5 q=37.5 size=       0KiB time=00:00:01.01 bitrate=   0.3kbits/s speed=0.00886x elapsed=0:01:54.73    \nframe=   63 fps=0.5 q=37.5 size=       0KiB time=00:00:01.01 bitrate=   0.3kbits/s speed=0.00882x elapsed=0:01:55.28    \nframe=   64 fps=0.6 q=38.2 size=       0KiB time=00:00:01.03 bitrate=   0.3kbits/s speed=0.00892x elapsed=0:01:55.87    \nframe=   64 fps=0.5 q=38.2 size=       0KiB time=00:00:01.03 bitrate=   0.3kbits/s speed=0.00887x elapsed=0:01:56.43    \nframe=   64 fps=0.5 q=38.2 size=       0KiB time=00:00:01.03 bitrate=   0.3kbits/s speed=0.00883x elapsed=0:01:57.02    \nframe=   65 fps=0.6 q=38.4 size=       0KiB time=00:00:01.05 bitrate=   0.3kbits/s speed=0.00893x elapsed=0:01:57.58    \nframe=   65 fps=0.6 q=38.4 size=       0KiB time=00:00:01.05 bitrate=   0.3kbits/s speed=0.00889x elapsed=0:01:58.17    \nframe=   65 fps=0.5 q=38.4 size=       0KiB time=00:00:01.05 bitrate=   0.3kbits/s speed=0.00885x elapsed=0:01:58.70    \nframe=   66 fps=0.6 q=39.3 size=       0KiB time=00:00:01.06 bitrate=   0.3kbits/s speed=0.00894x elapsed=0:01:59.27    \nframe=   66 fps=0.6 q=39.3 size=       0KiB time=00:00:01.06 bitrate=   0.3kbits/s speed=0.0089x elapsed=0:01:59.82    \nframe=   67 fps=0.6 q=33.0 size=       0KiB time=00:00:01.08 bitrate=   0.3kbits/s speed=0.009x elapsed=0:02:00.33    \nframe=   67 fps=0.6 q=33.0 size=       0KiB time=00:00:01.08 bitrate=   0.3kbits/s speed=0.00896x elapsed=0:02:00.86    \nframe=   67 fps=0.6 q=33.0 size=       0KiB time=00:00:01.08 bitrate=   0.3kbits/s speed=0.00892x elapsed=0:02:01.42    \nframe=   67 fps=0.5 q=33.0 size=       0KiB time=00:00:01.08 bitrate=   0.3kbits/s speed=0.00888x elapsed=0:02:01.96    \nframe=   68 fps=0.6 q=37.7 size=       0KiB time=00:00:01.10 bitrate=   0.3kbits/s speed=0.00898x elapsed=0:02:02.51    \nframe=   68 fps=0.6 q=37.7 size=       0KiB time=00:00:01.10 bitrate=   0.3kbits/s speed=0.00894x elapsed=0:02:03.07    \nframe=   69 fps=0.6 q=39.3 size=       0KiB time=00:00:01.11 bitrate=   0.3kbits/s speed=0.00903x elapsed=0:02:03.60    \nframe=   69 fps=0.6 q=39.3 size=       0KiB time=00:00:01.11 bitrate=   0.3kbits/s speed=0.00899x elapsed=0:02:04.15    \nframe=   69 fps=0.6 q=39.3 size=       0KiB time=00:00:01.11 bitrate=   0.3kbits/s speed=0.00895x elapsed=0:02:04.71    \nframe=   69 fps=0.6 q=39.3 size=       0KiB time=00:00:01.11 bitrate=   0.3kbits/s speed=0.00891x elapsed=0:02:05.33    \nframe=   69 fps=0.5 q=39.3 size=       0KiB time=00:00:01.11 bitrate=   0.3kbits/s speed=0.00886x elapsed=0:02:05.98    \nframe=   69 fps=0.5 q=39.3 size=       0KiB time=00:00:01.11 bitrate=   0.3kbits/s speed=0.00882x elapsed=0:02:06.58    \nframe=   69 fps=0.5 q=39.3 size=       0KiB time=00:00:01.11 bitrate=   0.3kbits/s speed=0.00878x elapsed=0:02:07.14    \nframe=   69 fps=0.5 q=39.3 size=       0KiB time=00:00:01.11 bitrate=   0.3kbits/s speed=0.00874x elapsed=0:02:07.69    \nframe=   69 fps=0.5 q=39.3 size=       0KiB time=00:00:01.11 bitrate=   0.3kbits/s speed=0.0087x elapsed=0:02:08.28    \nframe=   69 fps=0.5 q=39.3 size=       0KiB time=00:00:01.11 bitrate=   0.3kbits/s speed=0.00866x elapsed=0:02:08.90    \nframe=   69 fps=0.5 q=39.3 size=       0KiB time=00:00:01.11 bitrate=   0.3kbits/s speed=0.00862x elapsed=0:02:09.52    \nframe=   70 fps=0.5 q=39.2 size=       0KiB time=00:00:01.13 bitrate=   0.3kbits/s speed=0.00871x elapsed=0:02:10.07    \nframe=   70 fps=0.5 q=39.2 size=       0KiB time=00:00:01.13 bitrate=   0.3kbits/s speed=0.00868x elapsed=0:02:10.63    \nframe=   71 fps=0.5 q=39.2 size=       0KiB time=00:00:01.15 bitrate=   0.3kbits/s speed=0.00877x elapsed=0:02:11.17    \nframe=   71 fps=0.5 q=39.2 size=       0KiB time=00:00:01.15 bitrate=   0.3kbits/s speed=0.00873x elapsed=0:02:11.71    \nframe=   71 fps=0.5 q=39.2 size=       0KiB time=00:00:01.15 bitrate=   0.3kbits/s speed=0.0087x elapsed=0:02:12.24    \nframe=   72 fps=0.5 q=34.7 size=       0KiB time=00:00:01.16 bitrate=   0.3kbits/s speed=0.00879x elapsed=0:02:12.78    \nframe=   72 fps=0.5 q=34.7 size=       0KiB time=00:00:01.16 bitrate=   0.3kbits/s speed=0.00875x elapsed=0:02:13.30    \nframe=   73 fps=0.5 q=37.2 size=       0KiB time=00:00:01.18 bitrate=   0.3kbits/s speed=0.00884x elapsed=0:02:13.85    \nframe=   74 fps=0.6 q=39.1 size=       0KiB time=00:00:01.20 bitrate=   0.3kbits/s speed=0.00893x elapsed=0:02:14.35    \nframe=   74 fps=0.5 q=39.1 size=       0KiB time=00:00:01.20 bitrate=   0.3kbits/s speed=0.0089x elapsed=0:02:14.88    \nframe=   74 fps=0.5 q=39.1 size=       0KiB time=00:00:01.20 bitrate=   0.3kbits/s speed=0.00886x elapsed=0:02:15.41    \nframe=   75 fps=0.6 q=39.2 size=       0KiB time=00:00:01.21 bitrate=   0.3kbits/s speed=0.00895x elapsed=0:02:15.93    \nframe=   75 fps=0.5 q=39.2 size=       0KiB time=00:00:01.21 bitrate=   0.3kbits/s speed=0.00892x elapsed=0:02:16.46    \nframe=   75 fps=0.5 q=39.2 size=       0KiB time=00:00:01.21 bitrate=   0.3kbits/s speed=0.00888x elapsed=0:02:16.96    \nframe=   76 fps=0.6 q=39.3 size=       0KiB time=00:00:01.23 bitrate=   0.3kbits/s speed=0.00897x elapsed=0:02:17.48    \nframe=   77 fps=0.6 q=35.1 size=       0KiB time=00:00:01.23 bitrate=   0.3kbits/s speed=0.00894x elapsed=0:02:18.01    \nframe=   78 fps=0.6 q=37.1 size=       0KiB time=00:00:01.26 bitrate=   0.3kbits/s speed=0.00914x elapsed=0:02:18.54    \nframe=   79 fps=0.6 q=39.3 size=       0KiB time=00:00:01.28 bitrate=   0.3kbits/s speed=0.00923x elapsed=0:02:19.07    \nframe=   79 fps=0.6 q=39.3 size=       0KiB time=00:00:01.28 bitrate=   0.3kbits/s speed=0.00919x elapsed=0:02:19.62    \nframe=   80 fps=0.6 q=38.4 size=       0KiB time=00:00:01.30 bitrate=   0.3kbits/s speed=0.00928x elapsed=0:02:20.14    \nframe=   80 fps=0.6 q=38.4 size=       0KiB time=00:00:01.30 bitrate=   0.3kbits/s speed=0.00924x elapsed=0:02:20.67    \nframe=   81 fps=0.6 q=38.3 size=       0KiB time=00:00:01.31 bitrate=   0.3kbits/s speed=0.00933x elapsed=0:02:21.18    \nframe=   82 fps=0.6 q=32.3 size=       0KiB time=00:00:01.33 bitrate=   0.3kbits/s speed=0.00941x elapsed=0:02:21.70    \nframe=   82 fps=0.6 q=32.3 size=       0KiB time=00:00:01.33 bitrate=   0.3kbits/s speed=0.00938x elapsed=0:02:22.21    \nframe=   83 fps=0.6 q=37.1 size=       0KiB time=00:00:01.35 bitrate=   0.3kbits/s speed=0.00946x elapsed=0:02:22.73    \nframe=   84 fps=0.6 q=38.3 size=       0KiB time=00:00:01.36 bitrate=   0.3kbits/s speed=0.00954x elapsed=0:02:23.26    \nframe=   85 fps=0.6 q=38.3 size=       0KiB time=00:00:01.38 bitrate=   0.3kbits/s speed=0.00962x elapsed=0:02:23.78    \nframe=   86 fps=0.6 q=38.4 size=       0KiB time=00:00:01.40 bitrate=   0.3kbits/s speed=0.0097x elapsed=0:02:24.29    \nframe=   86 fps=0.6 q=38.4 size=       0KiB time=00:00:01.40 bitrate=   0.3kbits/s speed=0.00967x elapsed=0:02:24.81    \nframe=   87 fps=0.6 q=33.8 size=       0KiB time=00:00:01.41 bitrate=   0.2kbits/s speed=0.00975x elapsed=0:02:25.34    \nframe=   87 fps=0.6 q=33.8 size=       0KiB time=00:00:01.41 bitrate=   0.2kbits/s speed=0.00971x elapsed=0:02:25.86    \nframe=   87 fps=0.6 q=33.8 size=       0KiB time=00:00:01.41 bitrate=   0.2kbits/s speed=0.00968x elapsed=0:02:26.39    \nframe=   87 fps=0.6 q=33.8 size=       0KiB time=00:00:01.41 bitrate=   0.2kbits/s speed=0.00964x elapsed=0:02:26.92    \nframe=   88 fps=0.6 q=37.0 size=       0KiB time=00:00:01.43 bitrate=   0.2kbits/s speed=0.00972x elapsed=0:02:27.44    \nframe=   89 fps=0.6 q=38.3 size=       0KiB time=00:00:01.45 bitrate=   0.2kbits/s speed=0.0098x elapsed=0:02:27.96    \nframe=   89 fps=0.6 q=38.3 size=       0KiB time=00:00:01.45 bitrate=   0.2kbits/s speed=0.00976x elapsed=0:02:28.49    \nframe=   90 fps=0.6 q=31.8 size=       0KiB time=00:00:01.46 bitrate=   0.2kbits/s speed=0.00984x elapsed=0:02:29.01    \nframe=   91 fps=0.6 q=37.0 size=       0KiB time=00:00:01.48 bitrate=   0.2kbits/s speed=0.00992x elapsed=0:02:29.53    \nframe=   91 fps=0.6 q=37.0 size=       0KiB time=00:00:01.48 bitrate=   0.2kbits/s speed=0.00988x elapsed=0:02:30.06    \nframe=   92 fps=0.6 q=37.2 size=       0KiB time=00:00:01.50 bitrate=   0.2kbits/s speed=0.00996x elapsed=0:02:30.59    \nframe=   92 fps=0.6 q=37.2 size=       0KiB time=00:00:01.50 bitrate=   0.2kbits/s speed=0.00993x elapsed=0:02:31.12    \nframe=   92 fps=0.6 q=37.2 size=       0KiB time=00:00:01.50 bitrate=   0.2kbits/s speed=0.00989x elapsed=0:02:31.65    \nframe=   93 fps=0.6 q=37.4 size=       0KiB time=00:00:01.51 bitrate=   0.2kbits/s speed=0.00997x elapsed=0:02:32.19    \nframe=   93 fps=0.6 q=37.4 size=       0KiB time=00:00:01.51 bitrate=   0.2kbits/s speed=0.00993x elapsed=0:02:32.71    \nframe=   94 fps=0.6 q=37.4 size=       0KiB time=00:00:01.53 bitrate=   0.2kbits/s speed=0.01x elapsed=0:02:33.24    \nframe=   94 fps=0.6 q=37.4 size=       0KiB time=00:00:01.53 bitrate=   0.2kbits/s speed=0.00997x elapsed=0:02:33.79    \nframe=   95 fps=0.6 q=32.8 size=       0KiB time=00:00:01.55 bitrate=   0.2kbits/s speed=0.01x elapsed=0:02:34.31    \nframe=   95 fps=0.6 q=32.8 size=       0KiB time=00:00:01.55 bitrate=   0.2kbits/s speed=0.01x elapsed=0:02:34.82    \nframe=   96 fps=0.6 q=37.1 size=       0KiB time=00:00:01.56 bitrate=   0.2kbits/s speed=0.0101x elapsed=0:02:35.34    \nframe=   96 fps=0.6 q=37.1 size=       0KiB time=00:00:01.56 bitrate=   0.2kbits/s speed=0.0101x elapsed=0:02:35.86    \nframe=   97 fps=0.6 q=38.1 size=       0KiB time=00:00:01.58 bitrate=   0.2kbits/s speed=0.0101x elapsed=0:02:36.37    \nframe=   97 fps=0.6 q=38.1 size=       0KiB time=00:00:01.58 bitrate=   0.2kbits/s speed=0.0101x elapsed=0:02:36.90    \nframe=   97 fps=0.6 q=38.1 size=       0KiB time=00:00:01.58 bitrate=   0.2kbits/s speed=0.0101x elapsed=0:02:37.41    \nframe=   98 fps=0.6 q=38.1 size=       0KiB time=00:00:01.60 bitrate=   0.2kbits/s speed=0.0101x elapsed=0:02:37.93    \nframe=   98 fps=0.6 q=38.1 size=       0KiB time=00:00:01.60 bitrate=   0.2kbits/s speed=0.0101x elapsed=0:02:38.47    \nframe=   99 fps=0.6 q=38.3 size=       0KiB time=00:00:01.61 bitrate=   0.2kbits/s speed=0.0102x elapsed=0:02:38.99    \nframe=  100 fps=0.6 q=35.8 size=       0KiB time=00:00:01.63 bitrate=   0.2kbits/s speed=0.0102x elapsed=0:02:39.53    \nframe=  101 fps=0.6 q=37.5 size=       0KiB time=00:00:01.65 bitrate=   0.2kbits/s speed=0.0103x elapsed=0:02:40.05    \nframe=  101 fps=0.6 q=37.5 size=       0KiB time=00:00:01.65 bitrate=   0.2kbits/s speed=0.0103x elapsed=0:02:40.55    \nframe=  101 fps=0.6 q=37.5 size=       0KiB time=00:00:01.65 bitrate=   0.2kbits/s speed=0.0102x elapsed=0:02:41.08    \nframe=  101 fps=0.6 q=37.5 size=       0KiB time=00:00:01.65 bitrate=   0.2kbits/s speed=0.0102x elapsed=0:02:41.61    \nframe=  102 fps=0.6 q=38.5 size=       0KiB time=00:00:01.66 bitrate=   0.2kbits/s speed=0.0103x elapsed=0:02:42.14    \nframe=  102 fps=0.6 q=38.5 size=       0KiB time=00:00:01.66 bitrate=   0.2kbits/s speed=0.0102x elapsed=0:02:42.67    \nframe=  103 fps=0.6 q=39.3 size=       0KiB time=00:00:01.68 bitrate=   0.2kbits/s speed=0.0103x elapsed=0:02:43.24    \nframe=  103 fps=0.6 q=39.3 size=       0KiB time=00:00:01.68 bitrate=   0.2kbits/s speed=0.0103x elapsed=0:02:43.76    \nframe=  103 fps=0.6 q=39.3 size=       0KiB time=00:00:01.68 bitrate=   0.2kbits/s speed=0.0102x elapsed=0:02:44.29    \nframe=  103 fps=0.6 q=39.3 size=       0KiB time=00:00:01.68 bitrate=   0.2kbits/s speed=0.0102x elapsed=0:02:44.89    \nframe=  104 fps=0.6 q=36.2 size=       0KiB time=00:00:01.70 bitrate=   0.2kbits/s speed=0.0103x elapsed=0:02:45.47    \nframe=  104 fps=0.6 q=36.2 size=       0KiB time=00:00:01.70 bitrate=   0.2kbits/s speed=0.0102x elapsed=0:02:46.03    \nframe=  104 fps=0.6 q=36.2 size=       0KiB time=00:00:01.70 bitrate=   0.2kbits/s speed=0.0102x elapsed=0:02:46.55    \nframe=  104 fps=0.6 q=36.2 size=       0KiB time=00:00:01.70 bitrate=   0.2kbits/s speed=0.0102x elapsed=0:02:47.08    \nframe=  104 fps=0.6 q=36.2 size=       0KiB time=00:00:01.70 bitrate=   0.2kbits/s speed=0.0101x elapsed=0:02:47.61    \nframe=  105 fps=0.6 q=37.4 size=       0KiB time=00:00:01.71 bitrate=   0.2kbits/s speed=0.0102x elapsed=0:02:48.15    \nframe=  105 fps=0.6 q=37.4 size=       0KiB time=00:00:01.71 bitrate=   0.2kbits/s speed=0.0102x elapsed=0:02:48.67    \nframe=  106 fps=0.6 q=39.1 size=       0KiB time=00:00:01.73 bitrate=   0.2kbits/s speed=0.0102x elapsed=0:02:49.22    \nframe=  106 fps=0.6 q=39.1 size=       0KiB time=00:00:01.73 bitrate=   0.2kbits/s speed=0.0102x elapsed=0:02:49.77    \nframe=  106 fps=0.6 q=39.1 size=       0KiB time=00:00:01.73 bitrate=   0.2kbits/s speed=0.0102x elapsed=0:02:50.33    \nframe=  107 fps=0.6 q=38.3 size=       0KiB time=00:00:01.75 bitrate=   0.2kbits/s speed=0.0102x elapsed=0:02:50.92    \nframe=  107 fps=0.6 q=38.3 size=       0KiB time=00:00:01.75 bitrate=   0.2kbits/s speed=0.0102x elapsed=0:02:51.46    \nframe=  107 fps=0.6 q=38.3 size=       0KiB time=00:00:01.75 bitrate=   0.2kbits/s speed=0.0102x elapsed=0:02:52.00    \nframe=  107 fps=0.6 q=38.3 size=       0KiB time=00:00:01.75 bitrate=   0.2kbits/s speed=0.0101x elapsed=0:02:52.52    \nframe=  107 fps=0.6 q=38.3 size=       0KiB time=00:00:01.75 bitrate=   0.2kbits/s speed=0.0101x elapsed=0:02:53.07    \nframe=  107 fps=0.6 q=38.3 size=       0KiB time=00:00:01.75 bitrate=   0.2kbits/s speed=0.0101x elapsed=0:02:53.60    \nframe=  108 fps=0.6 q=38.5 size=       0KiB time=00:00:01.76 bitrate=   0.2kbits/s speed=0.0101x elapsed=0:02:54.14    \nframe=  108 fps=0.6 q=38.5 size=       0KiB time=00:00:01.76 bitrate=   0.2kbits/s speed=0.0101x elapsed=0:02:54.66    \nframe=  108 fps=0.6 q=38.5 size=       0KiB time=00:00:01.76 bitrate=   0.2kbits/s speed=0.0101x elapsed=0:02:55.19    \nframe=  108 fps=0.6 q=38.5 size=       0KiB time=00:00:01.76 bitrate=   0.2kbits/s speed=0.0101x elapsed=0:02:55.73    \nframe=  108 fps=0.6 q=38.5 size=       0KiB time=00:00:01.76 bitrate=   0.2kbits/s speed=0.01x elapsed=0:02:56.33    \nframe=  108 fps=0.6 q=38.5 size=       0KiB time=00:00:01.76 bitrate=   0.2kbits/s speed=0.00999x elapsed=0:02:56.84    \nframe=  108 fps=0.6 q=38.5 size=       0KiB time=00:00:01.76 bitrate=   0.2kbits/s speed=0.00996x elapsed=0:02:57.41    \nframe=  108 fps=0.6 q=38.5 size=       0KiB time=00:00:01.76 bitrate=   0.2kbits/s speed=0.00993x elapsed=0:02:57.97    \nframe=  108 fps=0.6 q=38.5 size=       0KiB time=00:00:01.76 bitrate=   0.2kbits/s speed=0.0099x elapsed=0:02:58.52    \nframe=  108 fps=0.6 q=38.5 size=       0KiB time=00:00:01.76 bitrate=   0.2kbits/s speed=0.00986x elapsed=0:02:59.13    \nframe=  108 fps=0.6 q=38.5 size=       0KiB time=00:00:01.76 bitrate=   0.2kbits/s speed=0.00983x elapsed=0:02:59.65    \nframe=  109 fps=0.6 q=34.3 size=       0KiB time=00:00:01.78 bitrate=   0.2kbits/s speed=0.0099x elapsed=0:03:00.17    \nframe=  109 fps=0.6 q=34.3 size=       0KiB time=00:00:01.78 bitrate=   0.2kbits/s speed=0.00987x elapsed=0:03:00.70    \nframe=  110 fps=0.6 q=36.9 size=       0KiB time=00:00:01.80 bitrate=   0.2kbits/s speed=0.00993x elapsed=0:03:01.23    \nframe=  110 fps=0.6 q=36.9 size=       0KiB time=00:00:01.80 bitrate=   0.2kbits/s speed=0.0099x elapsed=0:03:01.78    \nframe=  111 fps=0.6 q=38.2 size=       0KiB time=00:00:01.81 bitrate=   0.2kbits/s speed=0.00996x elapsed=0:03:02.32    \nframe=  111 fps=0.6 q=38.2 size=       0KiB time=00:00:01.81 bitrate=   0.2kbits/s speed=0.00994x elapsed=0:03:02.85    \nframe=  112 fps=0.6 q=39.1 size=       0KiB time=00:00:01.83 bitrate=   0.2kbits/s speed=0.01x elapsed=0:03:03.38    \nframe=  113 fps=0.6 q=39.3 size=       0KiB time=00:00:01.85 bitrate=   0.2kbits/s speed=0.0101x elapsed=0:03:03.92    \nframe=  113 fps=0.6 q=39.3 size=       0KiB time=00:00:01.85 bitrate=   0.2kbits/s speed=0.01x elapsed=0:03:04.45    \nframe=  114 fps=0.6 q=36.2 size=       0KiB time=00:00:01.86 bitrate=   0.2kbits/s speed=0.0101x elapsed=0:03:04.98    \nframe=  114 fps=0.6 q=36.2 size=       0KiB time=00:00:01.86 bitrate=   0.2kbits/s speed=0.0101x elapsed=0:03:05.50    \nframe=  114 fps=0.6 q=36.2 size=       0KiB time=00:00:01.86 bitrate=   0.2kbits/s speed=0.01x elapsed=0:03:06.01    \nframe=  115 fps=0.6 q=38.0 size=       0KiB time=00:00:01.88 bitrate=   0.2kbits/s speed=0.0101x elapsed=0:03:06.54    \nframe=  115 fps=0.6 q=38.0 size=       0KiB time=00:00:01.88 bitrate=   0.2kbits/s speed=0.0101x elapsed=0:03:07.10    \nframe=  115 fps=0.6 q=38.0 size=       0KiB time=00:00:01.88 bitrate=   0.2kbits/s speed=0.01x elapsed=0:03:07.62    \nframe=  115 fps=0.6 q=38.0 size=       0KiB time=00:00:01.88 bitrate=   0.2kbits/s speed=0.01x elapsed=0:03:08.14    \nframe=  116 fps=0.6 q=39.4 size=       0KiB time=00:00:01.90 bitrate=   0.2kbits/s speed=0.0101x elapsed=0:03:08.66    \nframe=  116 fps=0.6 q=39.4 size=       0KiB time=00:00:01.90 bitrate=   0.2kbits/s speed=0.01x elapsed=0:03:09.19    \nframe=  117 fps=0.6 q=38.4 size=       0KiB time=00:00:01.91 bitrate=   0.2kbits/s speed=0.0101x elapsed=0:03:09.75    \nframe=  117 fps=0.6 q=38.4 size=       0KiB time=00:00:01.91 bitrate=   0.2kbits/s speed=0.0101x elapsed=0:03:10.26    \nframe=  118 fps=0.6 q=34.5 size=       0KiB time=00:00:01.93 bitrate=   0.2kbits/s speed=0.0101x elapsed=0:03:10.79    \nframe=  118 fps=0.6 q=34.5 size=       0KiB time=00:00:01.93 bitrate=   0.2kbits/s speed=0.0101x elapsed=0:03:11.34    \nframe=  118 fps=0.6 q=34.5 size=       0KiB time=00:00:01.93 bitrate=   0.2kbits/s speed=0.0101x elapsed=0:03:11.89    \nframe=  120 fps=0.6 q=38.2 size=       0KiB time=00:00:01.96 bitrate=   0.2kbits/s speed=0.0102x elapsed=0:03:12.42    \nframe=  120 fps=0.6 q=38.2 size=       0KiB time=00:00:01.96 bitrate=   0.2kbits/s speed=0.0102x elapsed=0:03:12.96    \nframe=  120 fps=0.6 q=38.2 size=       0KiB time=00:00:01.96 bitrate=   0.2kbits/s speed=0.0102x elapsed=0:03:13.57    \nframe=  121 fps=0.6 q=38.3 size=       0KiB time=00:00:01.98 bitrate=   0.2kbits/s speed=0.0102x elapsed=0:03:14.11    \nframe=  121 fps=0.6 q=38.3 size=       0KiB time=00:00:01.98 bitrate=   0.2kbits/s speed=0.0102x elapsed=0:03:14.66    \nframe=  122 fps=0.6 q=38.3 size=       0KiB time=00:00:02.00 bitrate=   0.2kbits/s speed=0.0102x elapsed=0:03:15.19    \nframe=  123 fps=0.6 q=34.8 size=       0KiB time=00:00:02.00 bitrate=   0.2kbits/s speed=0.0102x elapsed=0:03:15.75    \nframe=  123 fps=0.6 q=34.8 size=       0KiB time=00:00:02.01 bitrate=   0.2kbits/s speed=0.0103x elapsed=0:03:16.33    \nframe=  124 fps=0.6 q=36.9 size=       0KiB time=00:00:02.03 bitrate=   0.2kbits/s speed=0.0103x elapsed=0:03:16.84    \nframe=  124 fps=0.6 q=36.9 size=       0KiB time=00:00:02.03 bitrate=   0.2kbits/s speed=0.0103x elapsed=0:03:17.40    \nframe=  124 fps=0.6 q=36.9 size=       0KiB time=00:00:02.03 bitrate=   0.2kbits/s speed=0.0103x elapsed=0:03:17.95    \nframe=  124 fps=0.6 q=36.9 size=       0KiB time=00:00:02.03 bitrate=   0.2kbits/s speed=0.0102x elapsed=0:03:18.51    \nframe=  125 fps=0.6 q=38.1 size=       0KiB time=00:00:02.05 bitrate=   0.2kbits/s speed=0.0103x elapsed=0:03:19.03    \nframe=  125 fps=0.6 q=38.1 size=       0KiB time=00:00:02.05 bitrate=   0.2kbits/s speed=0.0103x elapsed=0:03:19.54    \nframe=  125 fps=0.6 q=38.1 size=       0KiB time=00:00:02.05 bitrate=   0.2kbits/s speed=0.0102x elapsed=0:03:20.08    \nframe=  125 fps=0.6 q=38.1 size=       0KiB time=00:00:02.05 bitrate=   0.2kbits/s speed=0.0102x elapsed=0:03:20.63    \nframe=  126 fps=0.6 q=31.9 size=       0KiB time=00:00:02.06 bitrate=   0.2kbits/s speed=0.0103x elapsed=0:03:21.17    \nframe=  126 fps=0.6 q=31.9 size=       0KiB time=00:00:02.06 bitrate=   0.2kbits/s speed=0.0102x elapsed=0:03:21.70    \nframe=  127 fps=0.6 q=35.5 size=       0KiB time=00:00:02.08 bitrate=   0.2kbits/s speed=0.0103x elapsed=0:03:22.25    \nframe=  128 fps=0.6 q=37.5 size=       0KiB time=00:00:02.10 bitrate=   0.2kbits/s speed=0.0104x elapsed=0:03:22.77    \nframe=  129 fps=0.6 q=37.4 size=       0KiB time=00:00:02.11 bitrate=   0.2kbits/s speed=0.0104x elapsed=0:03:23.29    \nframe=  129 fps=0.6 q=37.4 size=       0KiB time=00:00:02.11 bitrate=   0.2kbits/s speed=0.0104x elapsed=0:03:23.85    \nframe=  129 fps=0.6 q=37.4 size=       0KiB time=00:00:02.11 bitrate=   0.2kbits/s speed=0.0104x elapsed=0:03:24.37    \nframe=  130 fps=0.6 q=37.4 size=     256KiB time=00:00:02.13 bitrate= 983.2kbits/s speed=0.0104x elapsed=0:03:24.89    \nframe=  131 fps=0.6 q=32.7 size=     256KiB time=00:00:02.15 bitrate= 975.6kbits/s speed=0.0105x elapsed=0:03:25.42    \nframe=  131 fps=0.6 q=32.7 size=     256KiB time=00:00:02.15 bitrate= 975.6kbits/s speed=0.0104x elapsed=0:03:25.95    \nframe=  132 fps=0.6 q=35.7 size=     256KiB time=00:00:02.16 bitrate= 968.1kbits/s speed=0.0105x elapsed=0:03:26.50    \nframe=  133 fps=0.6 q=37.3 size=     256KiB time=00:00:02.18 bitrate= 960.7kbits/s speed=0.0105x elapsed=0:03:27.05    \nframe=  134 fps=0.6 q=37.2 size=     256KiB time=00:00:02.20 bitrate= 953.4kbits/s speed=0.0106x elapsed=0:03:27.58    \nframe=  134 fps=0.6 q=37.2 size=     256KiB time=00:00:02.20 bitrate= 953.4kbits/s speed=0.0106x elapsed=0:03:28.09    \nframe=  134 fps=0.6 q=37.2 size=     256KiB time=00:00:02.20 bitrate= 953.4kbits/s speed=0.0105x elapsed=0:03:28.63    \nframe=  134 fps=0.6 q=37.2 size=     256KiB time=00:00:02.20 bitrate= 953.4kbits/s speed=0.0105x elapsed=0:03:29.17    \nframe=  134 fps=0.6 q=37.2 size=     256KiB time=00:00:02.20 bitrate= 953.4kbits/s speed=0.0105x elapsed=0:03:29.70    \nframe=  135 fps=0.6 q=38.3 size=     256KiB time=00:00:02.21 bitrate= 946.2kbits/s speed=0.0105x elapsed=0:03:30.26    \nframe=  135 fps=0.6 q=38.3 size=     256KiB time=00:00:02.21 bitrate= 946.2kbits/s speed=0.0105x elapsed=0:03:30.80    \nframe=  137 fps=0.6 q=37.7 size=     256KiB time=00:00:02.25 bitrate= 932.2kbits/s speed=0.0106x elapsed=0:03:31.35    \nframe=  137 fps=0.6 q=37.7 size=     256KiB time=00:00:02.25 bitrate= 932.2kbits/s speed=0.0106x elapsed=0:03:31.90    \nframe=  137 fps=0.6 q=37.7 size=     256KiB time=00:00:02.25 bitrate= 932.2kbits/s speed=0.0106x elapsed=0:03:32.45    \nframe=  137 fps=0.6 q=37.7 size=     256KiB time=00:00:02.25 bitrate= 932.2kbits/s speed=0.0106x elapsed=0:03:33.01    \nframe=  137 fps=0.6 q=37.7 size=     256KiB time=00:00:02.25 bitrate= 932.2kbits/s speed=0.0105x elapsed=0:03:33.59    \nframe=  138 fps=0.6 q=39.1 size=     256KiB time=00:00:02.26 bitrate= 925.4kbits/s speed=0.0106x elapsed=0:03:34.21    \nframe=  138 fps=0.6 q=39.1 size=     256KiB time=00:00:02.26 bitrate= 925.4kbits/s speed=0.0106x elapsed=0:03:34.78    \nframe=  139 fps=0.6 q=38.1 size=     256KiB time=00:00:02.28 bitrate= 918.6kbits/s speed=0.0106x elapsed=0:03:35.30    \nframe=  140 fps=0.6 q=38.3 size=     256KiB time=00:00:02.30 bitrate= 912.0kbits/s speed=0.0107x elapsed=0:03:35.82    \nframe=  141 fps=0.7 q=33.5 size=     256KiB time=00:00:02.31 bitrate= 905.4kbits/s speed=0.0107x elapsed=0:03:36.34    \nframe=  141 fps=0.7 q=33.5 size=     256KiB time=00:00:02.31 bitrate= 905.4kbits/s speed=0.0107x elapsed=0:03:36.86    \nframe=  141 fps=0.6 q=33.5 size=     256KiB time=00:00:02.31 bitrate= 905.4kbits/s speed=0.0107x elapsed=0:03:37.38    \nframe=  142 fps=0.7 q=37.4 size=     256KiB time=00:00:02.33 bitrate= 898.9kbits/s speed=0.0107x elapsed=0:03:37.93    \nframe=  143 fps=0.7 q=38.3 size=     256KiB time=00:00:02.35 bitrate= 892.6kbits/s speed=0.0108x elapsed=0:03:38.49    \nframe=  143 fps=0.7 q=38.3 size=     256KiB time=00:00:02.35 bitrate= 892.6kbits/s speed=0.0107x elapsed=0:03:39.03    \nframe=  143 fps=0.7 q=38.3 size=     256KiB time=00:00:02.35 bitrate= 892.6kbits/s speed=0.0107x elapsed=0:03:39.58    \nframe=  144 fps=0.7 q=38.4 size=     256KiB time=00:00:02.36 bitrate= 886.3kbits/s speed=0.0108x elapsed=0:03:40.10    \nframe=  144 fps=0.7 q=38.4 size=     256KiB time=00:00:02.36 bitrate= 886.3kbits/s speed=0.0107x elapsed=0:03:40.64    \nframe=  144 fps=0.7 q=38.4 size=     256KiB time=00:00:02.36 bitrate= 886.3kbits/s speed=0.0107x elapsed=0:03:41.16    \nframe=  145 fps=0.7 q=37.6 size=     256KiB time=00:00:02.38 bitrate= 880.1kbits/s speed=0.0108x elapsed=0:03:41.67    \nframe=  145 fps=0.7 q=37.6 size=     256KiB time=00:00:02.38 bitrate= 880.1kbits/s speed=0.0107x elapsed=0:03:42.20    \nframe=  145 fps=0.7 q=37.6 size=     256KiB time=00:00:02.38 bitrate= 880.1kbits/s speed=0.0107x elapsed=0:03:42.76    \nframe=  146 fps=0.7 q=32.0 size=     256KiB time=00:00:02.40 bitrate= 874.0kbits/s speed=0.0107x elapsed=0:03:43.28    \nframe=  146 fps=0.7 q=32.0 size=     256KiB time=00:00:02.40 bitrate= 874.0kbits/s speed=0.0107x elapsed=0:03:43.81    \nframe=  146 fps=0.7 q=32.0 size=     256KiB time=00:00:02.40 bitrate= 874.0kbits/s speed=0.0107x elapsed=0:03:44.34    \nframe=  146 fps=0.6 q=32.0 size=     256KiB time=00:00:02.40 bitrate= 874.0kbits/s speed=0.0107x elapsed=0:03:44.89    \nframe=  146 fps=0.6 q=32.0 size=     256KiB time=00:00:02.40 bitrate= 874.0kbits/s speed=0.0106x elapsed=0:03:45.45    \nframe=  147 fps=0.7 q=36.3 size=     256KiB time=00:00:02.41 bitrate= 867.9kbits/s speed=0.0107x elapsed=0:03:46.01    \nframe=  148 fps=0.7 q=37.4 size=     256KiB time=00:00:02.43 bitrate= 862.0kbits/s speed=0.0107x elapsed=0:03:46.54    \nframe=  148 fps=0.7 q=37.4 size=     256KiB time=00:00:02.43 bitrate= 862.0kbits/s speed=0.0107x elapsed=0:03:47.06    \nframe=  149 fps=0.7 q=38.3 size=     256KiB time=00:00:02.45 bitrate= 856.1kbits/s speed=0.0108x elapsed=0:03:47.60    \nframe=  149 fps=0.7 q=38.3 size=     256KiB time=00:00:02.45 bitrate= 856.1kbits/s speed=0.0107x elapsed=0:03:48.12    \nframe=  149 fps=0.7 q=38.3 size=     256KiB time=00:00:02.45 bitrate= 856.1kbits/s speed=0.0107x elapsed=0:03:48.66    \nframe=  150 fps=0.7 q=38.4 size=     256KiB time=00:00:02.46 bitrate= 850.3kbits/s speed=0.0108x elapsed=0:03:49.22    \nframe=  150 fps=0.7 q=38.4 size=     256KiB time=00:00:02.46 bitrate= 850.3kbits/s speed=0.0107x elapsed=0:03:49.80    \nframe=  150 fps=0.7 q=38.4 size=     256KiB time=00:00:02.46 bitrate= 850.3kbits/s speed=0.0107x elapsed=0:03:50.46    \nframe=  150 fps=0.6 q=38.4 size=     256KiB time=00:00:02.46 bitrate= 850.3kbits/s speed=0.0107x elapsed=0:03:51.07    \nframe=  151 fps=0.7 q=34.4 size=     256KiB time=00:00:02.48 bitrate= 844.6kbits/s speed=0.0107x elapsed=0:03:51.63    \nframe=  151 fps=0.7 q=34.4 size=     256KiB time=00:00:02.48 bitrate= 844.6kbits/s speed=0.0107x elapsed=0:03:52.21    \nframe=  152 fps=0.7 q=37.4 size=     256KiB time=00:00:02.50 bitrate= 839.0kbits/s speed=0.0107x elapsed=0:03:52.78    \nframe=  152 fps=0.7 q=37.4 size=     256KiB time=00:00:02.50 bitrate= 839.0kbits/s speed=0.0107x elapsed=0:03:53.36    \nframe=  152 fps=0.6 q=37.4 size=     256KiB time=00:00:02.50 bitrate= 839.0kbits/s speed=0.0107x elapsed=0:03:53.94    \nframe=  152 fps=0.6 q=37.4 size=     256KiB time=00:00:02.50 bitrate= 839.0kbits/s speed=0.0107x elapsed=0:03:54.54    \nframe=  152 fps=0.6 q=37.4 size=     256KiB time=00:00:02.50 bitrate= 839.0kbits/s speed=0.0106x elapsed=0:03:55.10    \nframe=  152 fps=0.6 q=37.4 size=     256KiB time=00:00:02.50 bitrate= 839.0kbits/s speed=0.0106x elapsed=0:03:55.63    \nframe=  153 fps=0.6 q=38.5 size=     256KiB time=00:00:02.51 bitrate= 833.4kbits/s speed=0.0107x elapsed=0:03:56.16    \nframe=  154 fps=0.7 q=37.2 size=     256KiB time=00:00:02.53 bitrate= 828.0kbits/s speed=0.0107x elapsed=0:03:56.70    \nframe=  155 fps=0.7 q=37.4 size=     256KiB time=00:00:02.55 bitrate= 822.6kbits/s speed=0.0107x elapsed=0:03:57.21    \nframe=  156 fps=0.7 q=29.9 size=     256KiB time=00:00:02.56 bitrate= 817.2kbits/s speed=0.0108x elapsed=0:03:57.73    \nframe=  157 fps=0.7 q=36.4 size=     256KiB time=00:00:02.58 bitrate= 811.9kbits/s speed=0.0108x elapsed=0:03:58.24    \nframe=  158 fps=0.7 q=36.5 size=     256KiB time=00:00:02.60 bitrate= 806.7kbits/s speed=0.0109x elapsed=0:03:58.76    \nframe=  159 fps=0.7 q=36.5 size=     256KiB time=00:00:02.61 bitrate= 801.6kbits/s speed=0.0109x elapsed=0:03:59.27    \nframe=  160 fps=0.7 q=36.6 size=     256KiB time=00:00:02.63 bitrate= 796.5kbits/s speed=0.011x elapsed=0:03:59.79    \nframe=  161 fps=0.7 q=29.8 size=     256KiB time=00:00:02.65 bitrate= 791.5kbits/s speed=0.011x elapsed=0:04:00.31    \nframe=  162 fps=0.7 q=35.5 size=     256KiB time=00:00:02.66 bitrate= 786.6kbits/s speed=0.0111x elapsed=0:04:00.86    \nframe=  164 fps=0.7 q=36.2 size=     256KiB time=00:00:02.70 bitrate= 776.9kbits/s speed=0.0112x elapsed=0:04:01.37    \nframe=  165 fps=0.7 q=36.3 size=     256KiB time=00:00:02.71 bitrate= 772.1kbits/s speed=0.0112x elapsed=0:04:01.89    \nframe=  166 fps=0.7 q=29.7 size=     256KiB time=00:00:02.73 bitrate= 767.4kbits/s speed=0.0113x elapsed=0:04:02.40    \nframe=  167 fps=0.7 q=35.5 size=     256KiB time=00:00:02.75 bitrate= 762.7kbits/s speed=0.0113x elapsed=0:04:02.92    \nframe=  169 fps=0.7 q=35.5 size=     256KiB time=00:00:02.78 bitrate= 753.6kbits/s speed=0.0114x elapsed=0:04:03.44    \nframe=  170 fps=0.7 q=35.6 size=     256KiB time=00:00:02.80 bitrate= 749.1kbits/s speed=0.0115x elapsed=0:04:03.95    \nframe=  170 fps=0.7 q=35.6 size=     256KiB time=00:00:02.80 bitrate= 749.1kbits/s speed=0.0115x elapsed=0:04:04.47    \nframe=  172 fps=0.7 q=35.2 size=     256KiB time=00:00:02.83 bitrate= 740.3kbits/s speed=0.0116x elapsed=0:04:04.99    \nframe=  174 fps=0.7 q=35.4 size=     256KiB time=00:00:02.86 bitrate= 731.7kbits/s speed=0.0117x elapsed=0:04:05.49    \nframe=  175 fps=0.7 q=35.5 size=     256KiB time=00:00:02.88 bitrate= 727.5kbits/s speed=0.0117x elapsed=0:04:06.01    \nframe=  176 fps=0.7 q=29.5 size=     256KiB time=00:00:02.90 bitrate= 723.3kbits/s speed=0.0118x elapsed=0:04:06.54    \nframe=  178 fps=0.7 q=35.4 size=     256KiB time=00:00:02.93 bitrate= 715.1kbits/s speed=0.0119x elapsed=0:04:07.04    \nframe=  179 fps=0.7 q=35.6 size=     256KiB time=00:00:02.95 bitrate= 711.0kbits/s speed=0.0119x elapsed=0:04:07.56    \nframe=  179 fps=0.7 q=35.6 size=     256KiB time=00:00:02.95 bitrate= 711.0kbits/s speed=0.0119x elapsed=0:04:08.07    \nframe=  180 fps=0.7 q=35.5 size=     256KiB time=00:00:02.96 bitrate= 707.0kbits/s speed=0.0119x elapsed=0:04:08.59    \nframe=  180 fps=0.7 q=35.5 size=     256KiB time=00:00:02.96 bitrate= 707.0kbits/s speed=0.0119x elapsed=0:04:09.10    \nframe=  181 fps=0.7 q=29.6 size=     256KiB time=00:00:02.98 bitrate= 703.1kbits/s speed=0.012x elapsed=0:04:09.62    \nframe=  183 fps=0.7 q=35.4 size=     256KiB time=00:00:03.01 bitrate= 695.3kbits/s speed=0.0121x elapsed=0:04:10.14    \nframe=  184 fps=0.7 q=36.2 size=     256KiB time=00:00:03.03 bitrate= 691.5kbits/s speed=0.0121x elapsed=0:04:10.66    \nframe=  185 fps=0.7 q=36.3 size=     256KiB time=00:00:03.05 bitrate= 687.7kbits/s speed=0.0121x elapsed=0:04:11.17    \nframe=  185 fps=0.7 q=36.3 size=     256KiB time=00:00:03.05 bitrate= 687.7kbits/s speed=0.0121x elapsed=0:04:11.69    \nframe=  186 fps=0.7 q=30.8 size=     256KiB time=00:00:03.06 bitrate= 684.0kbits/s speed=0.0122x elapsed=0:04:12.20    \nframe=  186 fps=0.7 q=30.8 size=     256KiB time=00:00:03.06 bitrate= 684.0kbits/s speed=0.0121x elapsed=0:04:12.72    \nframe=  187 fps=0.7 q=35.2 size=     256KiB time=00:00:03.08 bitrate= 680.3kbits/s speed=0.0122x elapsed=0:04:13.25    \nframe=  187 fps=0.7 q=35.2 size=     256KiB time=00:00:03.08 bitrate= 680.3kbits/s speed=0.0121x elapsed=0:04:13.81    \nframe=  188 fps=0.7 q=37.1 size=     256KiB time=00:00:03.10 bitrate= 676.6kbits/s speed=0.0122x elapsed=0:04:14.34    \nframe=  188 fps=0.7 q=37.1 size=     256KiB time=00:00:03.10 bitrate= 676.6kbits/s speed=0.0122x elapsed=0:04:14.86    \nframe=  189 fps=0.7 q=36.4 size=     256KiB time=00:00:03.11 bitrate= 673.0kbits/s speed=0.0122x elapsed=0:04:15.39    \nframe=  190 fps=0.7 q=37.2 size=     256KiB time=00:00:03.13 bitrate= 669.4kbits/s speed=0.0122x elapsed=0:04:15.90    \nframe=  190 fps=0.7 q=37.2 size=     256KiB time=00:00:03.13 bitrate= 669.4kbits/s speed=0.0122x elapsed=0:04:16.43    \nframe=  190 fps=0.7 q=37.2 size=     256KiB time=00:00:03.13 bitrate= 669.4kbits/s speed=0.0122x elapsed=0:04:16.97    \nframe=  190 fps=0.7 q=37.2 size=     256KiB time=00:00:03.13 bitrate= 669.4kbits/s speed=0.0122x elapsed=0:04:17.50    \nframe=  192 fps=0.7 q=37.1 size=     256KiB time=00:00:03.16 bitrate= 662.4kbits/s speed=0.0123x elapsed=0:04:18.03    \nframe=  192 fps=0.7 q=37.1 size=     256KiB time=00:00:03.16 bitrate= 662.4kbits/s speed=0.0122x elapsed=0:04:18.55    \nframe=  193 fps=0.7 q=37.4 size=     256KiB time=00:00:03.18 bitrate= 658.9kbits/s speed=0.0123x elapsed=0:04:19.08    \nframe=  194 fps=0.7 q=37.5 size=     256KiB time=00:00:03.20 bitrate= 655.5kbits/s speed=0.0123x elapsed=0:04:19.60    \nframe=  194 fps=0.7 q=37.5 size=     256KiB time=00:00:03.20 bitrate= 655.5kbits/s speed=0.0123x elapsed=0:04:20.13    \nframe=  194 fps=0.7 q=37.5 size=     256KiB time=00:00:03.20 bitrate= 655.5kbits/s speed=0.0123x elapsed=0:04:20.65    \nframe=  195 fps=0.7 q=38.5 size=     256KiB time=00:00:03.21 bitrate= 652.1kbits/s speed=0.0123x elapsed=0:04:21.16    \nframe=  195 fps=0.7 q=38.5 size=     256KiB time=00:00:03.21 bitrate= 652.1kbits/s speed=0.0123x elapsed=0:04:21.68    \nframe=  196 fps=0.7 q=35.1 size=     256KiB time=00:00:03.23 bitrate= 648.7kbits/s speed=0.0123x elapsed=0:04:22.21    \nframe=  196 fps=0.7 q=35.1 size=     256KiB time=00:00:03.23 bitrate= 648.7kbits/s speed=0.0123x elapsed=0:04:22.71    \nframe=  198 fps=0.8 q=38.4 size=     256KiB time=00:00:03.26 bitrate= 642.1kbits/s speed=0.0124x elapsed=0:04:23.23    \nframe=  198 fps=0.8 q=38.4 size=     256KiB time=00:00:03.26 bitrate= 642.1kbits/s speed=0.0124x elapsed=0:04:23.74    \nframe=  199 fps=0.8 q=37.5 size=     256KiB time=00:00:03.28 bitrate= 638.8kbits/s speed=0.0124x elapsed=0:04:24.26    \nframe=  199 fps=0.8 q=37.5 size=     256KiB time=00:00:03.28 bitrate= 638.8kbits/s speed=0.0124x elapsed=0:04:24.78    \nframe=  199 fps=0.8 q=37.5 size=     256KiB time=00:00:03.28 bitrate= 638.8kbits/s speed=0.0124x elapsed=0:04:25.29    \nframe=  201 fps=0.8 q=35.7 size=     256KiB time=00:00:03.31 bitrate= 632.4kbits/s speed=0.0125x elapsed=0:04:25.82    \nframe=  202 fps=0.8 q=38.2 size=     256KiB time=00:00:03.33 bitrate= 629.3kbits/s speed=0.0125x elapsed=0:04:26.35    \nframe=  204 fps=0.8 q=37.4 size=     256KiB time=00:00:03.36 bitrate= 623.0kbits/s speed=0.0126x elapsed=0:04:26.87    \nframe=  204 fps=0.8 q=37.4 size=     256KiB time=00:00:03.36 bitrate= 623.0kbits/s speed=0.0126x elapsed=0:04:27.39    \nframe=  204 fps=0.8 q=37.4 size=     256KiB time=00:00:03.36 bitrate= 623.0kbits/s speed=0.0126x elapsed=0:04:27.92    \nframe=  205 fps=0.8 q=33.9 size=     256KiB time=00:00:03.38 bitrate= 620.0kbits/s speed=0.0126x elapsed=0:04:28.46    \nframe=  206 fps=0.8 q=35.8 size=     256KiB time=00:00:03.40 bitrate= 616.9kbits/s speed=0.0126x elapsed=0:04:28.99    \nframe=  207 fps=0.8 q=37.3 size=     256KiB time=00:00:03.41 bitrate= 613.9kbits/s speed=0.0127x elapsed=0:04:29.53    \nframe=  208 fps=0.8 q=37.2 size=     256KiB time=00:00:03.43 bitrate= 610.9kbits/s speed=0.0127x elapsed=0:04:30.04    \nframe=  208 fps=0.8 q=37.2 size=     256KiB time=00:00:03.43 bitrate= 610.9kbits/s speed=0.0127x elapsed=0:04:30.56    \nframe=  209 fps=0.8 q=37.5 size=     256KiB time=00:00:03.45 bitrate= 608.0kbits/s speed=0.0127x elapsed=0:04:31.08    \nframe=  209 fps=0.8 q=37.5 size=     256KiB time=00:00:03.45 bitrate= 608.0kbits/s speed=0.0127x elapsed=0:04:31.65    \nframe=  210 fps=0.8 q=34.3 size=     256KiB time=00:00:03.46 bitrate= 605.0kbits/s speed=0.0127x elapsed=0:04:32.19    \nframe=  210 fps=0.8 q=34.3 size=     256KiB time=00:00:03.46 bitrate= 605.0kbits/s speed=0.0127x elapsed=0:04:32.77    \nframe=  210 fps=0.8 q=34.3 size=     256KiB time=00:00:03.46 bitrate= 605.0kbits/s speed=0.0127x elapsed=0:04:33.35    \nframe=  211 fps=0.8 q=36.4 size=     256KiB time=00:00:03.48 bitrate= 602.2kbits/s speed=0.0127x elapsed=0:04:33.87    \nframe=  211 fps=0.8 q=36.4 size=     256KiB time=00:00:03.48 bitrate= 602.2kbits/s speed=0.0127x elapsed=0:04:34.40    \nframe=  211 fps=0.8 q=36.4 size=     256KiB time=00:00:03.48 bitrate= 602.2kbits/s speed=0.0127x elapsed=0:04:34.94    \nframe=  212 fps=0.8 q=37.6 size=     256KiB time=00:00:03.50 bitrate= 599.3kbits/s speed=0.0127x elapsed=0:04:35.51    \nframe=  212 fps=0.8 q=37.6 size=     256KiB time=00:00:03.50 bitrate= 599.3kbits/s speed=0.0127x elapsed=0:04:36.04    \nframe=  213 fps=0.8 q=37.5 size=     256KiB time=00:00:03.51 bitrate= 596.4kbits/s speed=0.0127x elapsed=0:04:36.57    \nframe=  214 fps=0.8 q=37.4 size=     256KiB time=00:00:03.53 bitrate= 593.6kbits/s speed=0.0127x elapsed=0:04:37.15    \nframe=  214 fps=0.8 q=37.4 size=     256KiB time=00:00:03.53 bitrate= 593.6kbits/s speed=0.0127x elapsed=0:04:37.67    \nframe=  214 fps=0.8 q=37.4 size=     256KiB time=00:00:03.53 bitrate= 593.6kbits/s speed=0.0127x elapsed=0:04:38.20    \nframe=  214 fps=0.8 q=37.4 size=     256KiB time=00:00:03.53 bitrate= 593.6kbits/s speed=0.0127x elapsed=0:04:38.73    \nframe=  214 fps=0.8 q=37.4 size=     256KiB time=00:00:03.53 bitrate= 593.6kbits/s speed=0.0126x elapsed=0:04:39.31    \nframe=  215 fps=0.8 q=33.6 size=     256KiB time=00:00:03.55 bitrate= 590.8kbits/s speed=0.0127x elapsed=0:04:39.86    \nframe=  216 fps=0.8 q=35.7 size=     256KiB time=00:00:03.56 bitrate= 588.1kbits/s speed=0.0127x elapsed=0:04:40.40    \nframe=  216 fps=0.8 q=35.7 size=     256KiB time=00:00:03.56 bitrate= 588.1kbits/s speed=0.0127x elapsed=0:04:40.95    \nframe=  217 fps=0.8 q=37.4 size=     256KiB time=00:00:03.58 bitrate= 585.4kbits/s speed=0.0127x elapsed=0:04:41.52    \nframe=  217 fps=0.8 q=37.4 size=     256KiB time=00:00:03.58 bitrate= 585.4kbits/s speed=0.0127x elapsed=0:04:42.06    \nframe=  218 fps=0.8 q=37.3 size=     256KiB time=00:00:03.60 bitrate= 582.6kbits/s speed=0.0127x elapsed=0:04:42.60    \nframe=  218 fps=0.8 q=37.3 size=     256KiB time=00:00:03.60 bitrate= 582.6kbits/s speed=0.0127x elapsed=0:04:43.13    \nframe=  218 fps=0.8 q=37.3 size=     256KiB time=00:00:03.60 bitrate= 582.6kbits/s speed=0.0127x elapsed=0:04:43.67    \nframe=  218 fps=0.8 q=37.3 size=     256KiB time=00:00:03.60 bitrate= 582.6kbits/s speed=0.0127x elapsed=0:04:44.21    \nframe=  218 fps=0.8 q=37.3 size=     256KiB time=00:00:03.60 bitrate= 582.6kbits/s speed=0.0126x elapsed=0:04:44.78    \nframe=  219 fps=0.8 q=37.4 size=     256KiB time=00:00:03.61 bitrate= 580.0kbits/s speed=0.0127x elapsed=0:04:45.33    \nframe=  220 fps=0.8 q=35.0 size=     256KiB time=00:00:03.63 bitrate= 577.3kbits/s speed=0.0127x elapsed=0:04:45.84    \nframe=  220 fps=0.8 q=35.0 size=     256KiB time=00:00:03.63 bitrate= 577.3kbits/s speed=0.0127x elapsed=0:04:46.37    \nframe=  221 fps=0.8 q=36.4 size=     256KiB time=00:00:03.65 bitrate= 574.7kbits/s speed=0.0127x elapsed=0:04:46.96    \nframe=  221 fps=0.8 q=36.4 size=     256KiB time=00:00:03.65 bitrate= 574.7kbits/s speed=0.0127x elapsed=0:04:47.57    \nframe=  221 fps=0.8 q=36.4 size=     256KiB time=00:00:03.65 bitrate= 574.7kbits/s speed=0.0127x elapsed=0:04:48.09    \nframe=  221 fps=0.8 q=36.4 size=     256KiB time=00:00:03.65 bitrate= 574.7kbits/s speed=0.0126x elapsed=0:04:48.61    \nframe=  221 fps=0.8 q=36.4 size=     256KiB time=00:00:03.65 bitrate= 574.7kbits/s speed=0.0126x elapsed=0:04:49.14    \nframe=  221 fps=0.8 q=36.4 size=     256KiB time=00:00:03.65 bitrate= 574.7kbits/s speed=0.0126x elapsed=0:04:49.66    \nframe=  221 fps=0.8 q=36.4 size=     256KiB time=00:00:03.65 bitrate= 574.7kbits/s speed=0.0126x elapsed=0:04:50.19    \nframe=  221 fps=0.8 q=36.4 size=     256KiB time=00:00:03.65 bitrate= 574.7kbits/s speed=0.0126x elapsed=0:04:50.71    \nframe=  221 fps=0.8 q=36.4 size=     256KiB time=00:00:03.65 bitrate= 574.7kbits/s speed=0.0125x elapsed=0:04:51.28    \nframe=  221 fps=0.8 q=36.4 size=     256KiB time=00:00:03.65 bitrate= 574.7kbits/s speed=0.0125x elapsed=0:04:51.80    \nframe=  221 fps=0.8 q=36.4 size=     256KiB time=00:00:03.65 bitrate= 574.7kbits/s speed=0.0125x elapsed=0:04:52.35    \nframe=  223 fps=0.8 q=37.3 size=     256KiB time=00:00:03.68 bitrate= 569.5kbits/s speed=0.0126x elapsed=0:04:52.92    \nframe=  223 fps=0.8 q=37.3 size=     256KiB time=00:00:03.68 bitrate= 569.5kbits/s speed=0.0126x elapsed=0:04:53.48    \nframe=  223 fps=0.8 q=37.3 size=     256KiB time=00:00:03.68 bitrate= 569.5kbits/s speed=0.0125x elapsed=0:04:54.03    \nframe=  223 fps=0.8 q=37.3 size=     256KiB time=00:00:03.68 bitrate= 569.5kbits/s speed=0.0125x elapsed=0:04:54.60    \nframe=  223 fps=0.8 q=37.3 size=     256KiB time=00:00:03.68 bitrate= 569.5kbits/s speed=0.0125x elapsed=0:04:55.21    \nframe=  224 fps=0.8 q=37.5 size=     256KiB time=00:00:03.70 bitrate= 566.9kbits/s speed=0.0125x elapsed=0:04:55.77    \nframe=  225 fps=0.8 q=34.3 size=     256KiB time=00:00:03.71 bitrate= 564.4kbits/s speed=0.0125x elapsed=0:04:56.29    \nframe=  225 fps=0.8 q=34.3 size=     256KiB time=00:00:03.71 bitrate= 564.4kbits/s speed=0.0125x elapsed=0:04:56.79    \nframe=  225 fps=0.8 q=34.3 size=     256KiB time=00:00:03.71 bitrate= 564.4kbits/s speed=0.0125x elapsed=0:04:57.32    \nframe=  225 fps=0.8 q=34.3 size=     256KiB time=00:00:03.71 bitrate= 564.4kbits/s speed=0.0125x elapsed=0:04:57.85    \nframe=  227 fps=0.8 q=38.5 size=     256KiB time=00:00:03.75 bitrate= 559.3kbits/s speed=0.0126x elapsed=0:04:58.39    \nframe=  228 fps=0.8 q=37.5 size=     256KiB time=00:00:03.76 bitrate= 556.9kbits/s speed=0.0126x elapsed=0:04:58.92    \nframe=  228 fps=0.8 q=37.5 size=     256KiB time=00:00:03.76 bitrate= 556.9kbits/s speed=0.0126x elapsed=0:04:59.46    \nframe=  228 fps=0.8 q=37.5 size=     256KiB time=00:00:03.76 bitrate= 556.9kbits/s speed=0.0126x elapsed=0:05:00.02    \nframe=  229 fps=0.8 q=37.4 size=     256KiB time=00:00:03.78 bitrate= 554.4kbits/s speed=0.0126x elapsed=0:05:00.54    \nframe=  230 fps=0.8 q=36.4 size=     256KiB time=00:00:03.80 bitrate= 552.0kbits/s speed=0.0126x elapsed=0:05:01.05    \nframe=  230 fps=0.8 q=36.4 size=     256KiB time=00:00:03.80 bitrate= 552.0kbits/s speed=0.0126x elapsed=0:05:01.59    \nframe=  231 fps=0.8 q=37.3 size=     256KiB time=00:00:03.81 bitrate= 549.6kbits/s speed=0.0126x elapsed=0:05:02.10    \nframe=  233 fps=0.8 q=38.5 size=     256KiB time=00:00:03.85 bitrate= 544.8kbits/s speed=0.0127x elapsed=0:05:02.63    \nframe=  233 fps=0.8 q=38.5 size=     256KiB time=00:00:03.85 bitrate= 544.8kbits/s speed=0.0127x elapsed=0:05:03.13    \nframe=  233 fps=0.8 q=38.5 size=     256KiB time=00:00:03.85 bitrate= 544.8kbits/s speed=0.0127x elapsed=0:05:03.65    \nframe=  234 fps=0.8 q=39.5 size=     256KiB time=00:00:03.86 bitrate= 542.5kbits/s speed=0.0127x elapsed=0:05:04.17    \nframe=  235 fps=0.8 q=36.2 size=     256KiB time=00:00:03.88 bitrate= 540.1kbits/s speed=0.0127x elapsed=0:05:04.69    \nframe=  236 fps=0.8 q=38.1 size=     256KiB time=00:00:03.90 bitrate= 537.8kbits/s speed=0.0128x elapsed=0:05:05.24    \nframe=  237 fps=0.8 q=39.5 size=     256KiB time=00:00:03.91 bitrate= 535.5kbits/s speed=0.0128x elapsed=0:05:05.75    \nframe=  237 fps=0.8 q=39.5 size=     256KiB time=00:00:03.91 bitrate= 535.5kbits/s speed=0.0128x elapsed=0:05:06.28    \nframe=  238 fps=0.8 q=36.4 size=     256KiB time=00:00:03.93 bitrate= 533.3kbits/s speed=0.0128x elapsed=0:05:06.79    \nframe=  240 fps=0.8 q=39.5 size=     256KiB time=00:00:03.96 bitrate= 528.8kbits/s speed=0.0129x elapsed=0:05:07.31    \nframe=  241 fps=0.8 q=39.4 size=     256KiB time=00:00:03.98 bitrate= 526.6kbits/s speed=0.0129x elapsed=0:05:07.84    \nframe=  241 fps=0.8 q=39.4 size=     256KiB time=00:00:03.98 bitrate= 526.6kbits/s speed=0.0129x elapsed=0:05:08.35    \nframe=  242 fps=0.8 q=39.4 size=     256KiB time=00:00:04.00 bitrate= 524.4kbits/s speed=0.013x elapsed=0:05:08.87    \nframe=  244 fps=0.8 q=38.2 size=     256KiB time=00:00:04.03 bitrate= 520.0kbits/s speed=0.013x elapsed=0:05:09.39    \nframe=  245 fps=0.8 q=39.3 size=     256KiB time=00:00:04.05 bitrate= 517.9kbits/s speed=0.0131x elapsed=0:05:09.91    \nframe=  245 fps=0.8 q=39.3 size=     256KiB time=00:00:04.05 bitrate= 517.9kbits/s speed=0.013x elapsed=0:05:10.42    \nframe=  246 fps=0.8 q=39.2 size=     256KiB time=00:00:04.06 bitrate= 515.8kbits/s speed=0.0131x elapsed=0:05:10.95    \nframe=  247 fps=0.8 q=39.4 size=     256KiB time=00:00:04.08 bitrate= 513.7kbits/s speed=0.0131x elapsed=0:05:11.46    \nframe=  248 fps=0.8 q=28.8 size=     256KiB time=00:00:04.10 bitrate= 511.6kbits/s speed=0.0131x elapsed=0:05:11.99    \nframe=  249 fps=0.8 q=37.8 size=     512KiB time=00:00:04.11 bitrate=1018.9kbits/s speed=0.0132x elapsed=0:05:12.52    \nframe=  250 fps=0.8 q=39.7 size=     512KiB time=00:00:04.13 bitrate=1014.8kbits/s speed=0.0132x elapsed=0:05:13.04    \nframe=  251 fps=0.8 q=39.6 size=     512KiB time=00:00:04.15 bitrate=1010.8kbits/s speed=0.0132x elapsed=0:05:13.57    \nframe=  252 fps=0.8 q=36.3 size=     512KiB time=00:00:04.16 bitrate=1006.7kbits/s speed=0.0133x elapsed=0:05:14.07    \nframe=  254 fps=0.8 q=39.5 size=     512KiB time=00:00:04.20 bitrate= 998.7kbits/s speed=0.0133x elapsed=0:05:14.61    \nframe=  255 fps=0.8 q=39.7 size=     512KiB time=00:00:04.21 bitrate= 994.8kbits/s speed=0.0134x elapsed=0:05:15.14    \nframe=  255 fps=0.8 q=39.7 size=     512KiB time=00:00:04.21 bitrate= 994.8kbits/s speed=0.0134x elapsed=0:05:15.65    \nframe=  256 fps=0.8 q=39.7 size=     512KiB time=00:00:04.23 bitrate= 990.9kbits/s speed=0.0134x elapsed=0:05:16.17    \nframe=  259 fps=0.8 q=39.4 size=     512KiB time=00:00:04.28 bitrate= 979.3kbits/s speed=0.0135x elapsed=0:05:16.69    \nframe=  260 fps=0.8 q=39.5 size=     512KiB time=00:00:04.30 bitrate= 975.5kbits/s speed=0.0136x elapsed=0:05:17.22    \nframe=  260 fps=0.8 q=39.5 size=     512KiB time=00:00:04.30 bitrate= 975.5kbits/s speed=0.0135x elapsed=0:05:17.75    \nframe=  263 fps=0.8 q=37.9 size=     512KiB time=00:00:04.35 bitrate= 964.3kbits/s speed=0.0137x elapsed=0:05:18.28    \nframe=  264 fps=0.8 q=39.7 size=     512KiB time=00:00:04.36 bitrate= 960.6kbits/s speed=0.0137x elapsed=0:05:18.80    \nframe=  265 fps=0.8 q=39.7 size=     512KiB time=00:00:04.38 bitrate= 957.0kbits/s speed=0.0137x elapsed=0:05:19.34    \nframe=  265 fps=0.8 q=39.7 size=     512KiB time=00:00:04.38 bitrate= 957.0kbits/s speed=0.0137x elapsed=0:05:19.89    \nframe=  265 fps=0.8 q=39.7 size=     512KiB time=00:00:04.38 bitrate= 957.0kbits/s speed=0.0137x elapsed=0:05:20.44    \nframe=  265 fps=0.8 q=39.7 size=     512KiB time=00:00:04.38 bitrate= 957.0kbits/s speed=0.0137x elapsed=0:05:20.94    \nframe=  266 fps=0.8 q=39.6 size=     512KiB time=00:00:04.40 bitrate= 953.3kbits/s speed=0.0137x elapsed=0:05:21.48    \nframe=  268 fps=0.8 q=37.9 size=     512KiB time=00:00:04.43 bitrate= 946.2kbits/s speed=0.0138x elapsed=0:05:22.01    \nframe=  268 fps=0.8 q=37.9 size=     512KiB time=00:00:04.43 bitrate= 946.2kbits/s speed=0.0137x elapsed=0:05:22.54    \nframe=  268 fps=0.8 q=37.9 size=     512KiB time=00:00:04.43 bitrate= 946.2kbits/s speed=0.0137x elapsed=0:05:23.06    \nframe=  270 fps=0.8 q=39.5 size=     512KiB time=00:00:04.46 bitrate= 939.1kbits/s speed=0.0138x elapsed=0:05:23.57    \nframe=  270 fps=0.8 q=39.5 size=     512KiB time=00:00:04.46 bitrate= 939.1kbits/s speed=0.0138x elapsed=0:05:24.08    \nframe=  271 fps=0.8 q=39.6 size=     512KiB time=00:00:04.48 bitrate= 935.6kbits/s speed=0.0138x elapsed=0:05:24.62    \nframe=  272 fps=0.8 q=35.9 size=     512KiB time=00:00:04.50 bitrate= 932.1kbits/s speed=0.0138x elapsed=0:05:25.14    \nframe=  272 fps=0.8 q=35.9 size=     512KiB time=00:00:04.50 bitrate= 932.1kbits/s speed=0.0138x elapsed=0:05:25.66    \nframe=  273 fps=0.8 q=38.2 size=     512KiB time=00:00:04.51 bitrate= 928.7kbits/s speed=0.0138x elapsed=0:05:26.16    \nframe=  273 fps=0.8 q=38.2 size=     512KiB time=00:00:04.51 bitrate= 928.7kbits/s speed=0.0138x elapsed=0:05:26.69    \nframe=  275 fps=0.8 q=39.5 size=     512KiB time=00:00:04.55 bitrate= 921.9kbits/s speed=0.0139x elapsed=0:05:27.24    \nframe=  276 fps=0.8 q=39.6 size=     512KiB time=00:00:04.56 bitrate= 918.5kbits/s speed=0.0139x elapsed=0:05:27.76    \nframe=  276 fps=0.8 q=39.6 size=     512KiB time=00:00:04.56 bitrate= 918.5kbits/s speed=0.0139x elapsed=0:05:28.29    \nframe=  277 fps=0.8 q=36.4 size=     512KiB time=00:00:04.58 bitrate= 915.2kbits/s speed=0.0139x elapsed=0:05:28.82    \nframe=  279 fps=0.8 q=39.6 size=     512KiB time=00:00:04.61 bitrate= 908.6kbits/s speed=0.014x elapsed=0:05:29.34    \nframe=  280 fps=0.8 q=39.5 size=     512KiB time=00:00:04.63 bitrate= 905.3kbits/s speed=0.014x elapsed=0:05:29.87    \nframe=  280 fps=0.8 q=39.5 size=     512KiB time=00:00:04.63 bitrate= 905.3kbits/s speed=0.014x elapsed=0:05:30.41    \nframe=  282 fps=0.9 q=36.4 size=     512KiB time=00:00:04.66 bitrate= 898.9kbits/s speed=0.0141x elapsed=0:05:30.93    \nframe=  282 fps=0.9 q=36.4 size=     512KiB time=00:00:04.66 bitrate= 898.9kbits/s speed=0.0141x elapsed=0:05:31.49    \nframe=  282 fps=0.8 q=36.4 size=     512KiB time=00:00:04.66 bitrate= 898.9kbits/s speed=0.0141x elapsed=0:05:32.01    \nframe=  283 fps=0.9 q=38.3 size=     512KiB time=00:00:04.68 bitrate= 895.7kbits/s speed=0.0141x elapsed=0:05:32.54    \nframe=  284 fps=0.9 q=39.6 size=     512KiB time=00:00:04.70 bitrate= 892.5kbits/s speed=0.0141x elapsed=0:05:33.07    \nframe=  285 fps=0.9 q=39.6 size=     512KiB time=00:00:04.71 bitrate= 889.3kbits/s speed=0.0141x elapsed=0:05:33.59    \nframe=  286 fps=0.9 q=39.7 size=     512KiB time=00:00:04.73 bitrate= 886.2kbits/s speed=0.0142x elapsed=0:05:34.11    \nframe=  286 fps=0.9 q=39.7 size=     512KiB time=00:00:04.73 bitrate= 886.2kbits/s speed=0.0141x elapsed=0:05:34.64    \nframe=  286 fps=0.9 q=39.7 size=     512KiB time=00:00:04.73 bitrate= 886.2kbits/s speed=0.0141x elapsed=0:05:35.15    \nframe=  288 fps=0.9 q=38.3 size=     512KiB time=00:00:04.76 bitrate= 880.0kbits/s speed=0.0142x elapsed=0:05:35.67    \nframe=  289 fps=0.9 q=39.4 size=     512KiB time=00:00:04.78 bitrate= 876.9kbits/s speed=0.0142x elapsed=0:05:36.19    \nframe=  289 fps=0.9 q=39.4 size=     512KiB time=00:00:04.78 bitrate= 876.9kbits/s speed=0.0142x elapsed=0:05:36.73    \nframe=  290 fps=0.9 q=39.5 size=     512KiB time=00:00:04.80 bitrate= 873.9kbits/s speed=0.0142x elapsed=0:05:37.26    \nframe=  291 fps=0.9 q=39.7 size=     512KiB time=00:00:04.81 bitrate= 870.9kbits/s speed=0.0143x elapsed=0:05:37.80    \nframe=  292 fps=0.9 q=36.5 size=     512KiB time=00:00:04.83 bitrate= 867.9kbits/s speed=0.0143x elapsed=0:05:38.33    \nframe=  293 fps=0.9 q=38.2 size=     512KiB time=00:00:04.85 bitrate= 864.9kbits/s speed=0.0143x elapsed=0:05:38.84    \nframe=  293 fps=0.9 q=38.2 size=     512KiB time=00:00:04.85 bitrate= 864.9kbits/s speed=0.0143x elapsed=0:05:39.35    \nframe=  294 fps=0.9 q=39.4 size=     512KiB time=00:00:04.86 bitrate= 861.9kbits/s speed=0.0143x elapsed=0:05:39.88    \nframe=  294 fps=0.9 q=39.4 size=     512KiB time=00:00:04.86 bitrate= 861.9kbits/s speed=0.0143x elapsed=0:05:40.42    \nframe=  295 fps=0.9 q=39.4 size=     512KiB time=00:00:04.88 bitrate= 859.0kbits/s speed=0.0143x elapsed=0:05:40.94    \nframe=  296 fps=0.9 q=39.6 size=     512KiB time=00:00:04.90 bitrate= 856.1kbits/s speed=0.0143x elapsed=0:05:41.47    \nframe=  296 fps=0.9 q=39.6 size=     512KiB time=00:00:04.90 bitrate= 856.1kbits/s speed=0.0143x elapsed=0:05:42.00    \nframe=  296 fps=0.9 q=39.6 size=     512KiB time=00:00:04.90 bitrate= 856.1kbits/s speed=0.0143x elapsed=0:05:42.55    \nframe=  296 fps=0.9 q=39.6 size=     512KiB time=00:00:04.90 bitrate= 856.1kbits/s speed=0.0143x elapsed=0:05:43.09    \nframe=  297 fps=0.9 q=37.2 size=     512KiB time=00:00:04.91 bitrate= 853.2kbits/s speed=0.0143x elapsed=0:05:43.60    \nframe=  297 fps=0.9 q=37.2 size=     512KiB time=00:00:04.91 bitrate= 853.2kbits/s speed=0.0143x elapsed=0:05:44.15    \nframe=  297 fps=0.9 q=37.2 size=     512KiB time=00:00:04.91 bitrate= 853.2kbits/s speed=0.0143x elapsed=0:05:44.65    \n[mp4 @ 000001ae4158a700] Starting second pass: moving the moov atom to the beginning of the file\n[out#0/mp4 @ 000001ae4158a600] video:606KiB audio:0KiB subtitle:0KiB other streams:0KiB global headers:2KiB muxing overhead: 1.107918%\nframe=  300 fps=0.9 q=39.7 Lsize=     613KiB time=00:00:04.96 bitrate=1010.4kbits/s speed=0.0144x elapsed=0:05:45.01    \nx265 [info]: frame I:      2, Avg QP:36.17  kb/s: 11912.16\nx265 [info]: frame P:     62, Avg QP:34.66  kb/s: 2125.64 \nx265 [info]: frame B:    236, Avg QP:38.71  kb/s: 600.10  \nx265 [info]: Weighted P-Frames: Y:0.0% UV:0.0%\n\nencoded 300 frames in 344.60s (0.87 fps), 990.79 kb/s, Avg QP:37.86\n",
  "seconds": 345.430269241333,
  "probe_out": {}
}